<svg width="25" height="25" viewBox="0 0 25 25" fill="none" xmlns="http://www.w3.org/2000/svg">
<circle opacity="0.35" cx="12.5" cy="12.5" r="12.5" fill="#323245"/>
<path fill-rule="evenodd" clip-rule="evenodd" d="M13.3828 13.0001L16.6906 9.47142C16.9349 9.21075 16.9349 8.78942 16.6906 8.52875C16.4462 8.26809 16.0513 8.26809 15.8069 8.52875L12.4992 12.0574L9.19143 8.52875C8.94708 8.26809 8.55212 8.26809 8.30777 8.52875C8.06342 8.78942 8.06342 9.21075 8.30777 9.47142L11.6155 13.0001L8.30777 16.5288C8.06342 16.7894 8.06342 17.2107 8.30777 17.4714C8.42963 17.6014 8.58962 17.6667 8.7496 17.6667C8.90958 17.6667 9.06956 17.6014 9.19143 17.4714L12.4992 13.9428L15.8069 17.4714C15.9288 17.6014 16.0888 17.6667 16.2488 17.6667C16.4088 17.6667 16.5687 17.6014 16.6906 17.4714C16.9349 17.2107 16.9349 16.7894 16.6906 16.5288L13.3828 13.0001Z" fill="white"/>
</svg>
