<svg width="24" height="20" viewBox="0 0 24 20" fill="none" xmlns="http://www.w3.org/2000/svg">
<path fill-rule="evenodd" clip-rule="evenodd" d="M1.28863 7.15369L6.645 11.357C7.0655 11.6889 7.64488 11.7508 8.12725 11.5159C8.611 11.281 8.91888 10.7889 8.91888 10.2516L8.91888 7.45603L13.9307 7.45603C17.5195 7.45603 20.4375 10.374 20.4375 13.9599L20.4375 18.1548C20.4375 18.931 21.0661 19.561 21.8437 19.561C22.6214 19.561 23.25 18.931 23.25 18.1548L23.25 13.9599C23.25 8.82288 19.0706 4.64353 13.9307 4.64353L8.91888 4.64353L8.91888 1.84509C8.91888 1.3065 8.611 0.815717 8.12725 0.579467C7.93313 0.485255 7.72225 0.438842 7.51263 0.438842C7.20325 0.438842 6.89675 0.540092 6.645 0.73838L1.28863 4.94165C0.948253 5.20744 0.750002 5.61526 0.750002 6.04697C0.750002 6.48009 0.948253 6.88791 1.28863 7.15369Z" fill="#323245"/>
</svg>
