<svg width="24" height="20" viewBox="0 0 24 20" fill="none" xmlns="http://www.w3.org/2000/svg">
<path fill-rule="evenodd" clip-rule="evenodd" d="M22.7114 7.15369L17.355 11.357C16.9345 11.6889 16.3551 11.7508 15.8727 11.5159C15.389 11.281 15.0811 10.7889 15.0811 10.2516L15.0811 7.45603L10.0693 7.45603C6.48046 7.45603 3.5625 10.374 3.5625 13.9599L3.5625 18.1548C3.5625 18.931 2.9339 19.561 2.15625 19.561C1.3786 19.561 0.750001 18.931 0.750001 18.1548L0.750001 13.9599C0.75 8.82288 4.92938 4.64353 10.0693 4.64353L15.0811 4.64353L15.0811 1.84509C15.0811 1.3065 15.389 0.815717 15.8727 0.579467C16.0669 0.485255 16.2777 0.438842 16.4874 0.438842C16.7967 0.438842 17.1032 0.540092 17.355 0.73838L22.7114 4.94165C23.0517 5.20744 23.25 5.61526 23.25 6.04697C23.25 6.48009 23.0517 6.88791 22.7114 7.15369Z" fill="#323245"/>
</svg>
