<svg width="24" height="24" viewBox="0 0 24 24" fill="none" xmlns="http://www.w3.org/2000/svg">
<circle cx="12" cy="12" r="12" fill="#5158F6" fill-opacity="0.15"/>
<g clip-path="url(#clip0_95_2454)">
<path d="M4.8322 13.5384C4.95203 13.5384 5.04917 13.4412 5.04917 13.3214C5.04917 13.2016 4.95203 13.1045 4.8322 13.1045C4.71237 13.1045 4.61523 13.2016 4.61523 13.3214C4.61523 13.4412 4.71237 13.5384 4.8322 13.5384Z" fill="#5158F6"/>
<path d="M7.8488 13.2759C7.96863 13.2759 8.06577 13.1788 8.06577 13.059C8.06577 12.9391 7.96863 12.842 7.8488 12.842C7.72898 12.842 7.63184 12.9391 7.63184 13.059C7.63184 13.1788 7.72898 13.2759 7.8488 13.2759Z" fill="#5158F6"/>
<path d="M8.7199 14.5182C8.83972 14.5182 8.93686 14.421 8.93686 14.3013C8.93686 14.1814 8.83972 14.0843 8.7199 14.0843C8.60007 14.0843 8.50293 14.1814 8.50293 14.3013C8.50293 14.421 8.60007 14.5182 8.7199 14.5182Z" fill="#5158F6"/>
<path d="M11.2922 13.6083C11.412 13.6083 11.5091 13.5112 11.5091 13.3914C11.5091 13.2715 11.412 13.1744 11.2922 13.1744C11.1723 13.1744 11.0752 13.2715 11.0752 13.3914C11.0752 13.5112 11.1723 13.6083 11.2922 13.6083Z" fill="#5158F6"/>
<path d="M5.00701 6.92089C5.12683 6.92089 5.22397 6.82375 5.22397 6.70392C5.22397 6.58409 5.12683 6.48695 5.00701 6.48695C4.88718 6.48695 4.79004 6.58409 4.79004 6.70392C4.79004 6.82375 4.88718 6.92089 5.00701 6.92089Z" fill="#5158F6"/>
<path d="M5.23438 9.66445C5.41993 9.66445 5.57033 9.51404 5.57033 9.3285C5.57033 9.14296 5.41993 8.99255 5.23438 8.99255C5.04885 8.99255 4.89844 9.14296 4.89844 9.3285C4.89844 9.51404 5.04885 9.66445 5.23438 9.66445Z" fill="#5158F6"/>
<path d="M10.694 12.814C10.8486 12.814 10.974 12.6886 10.974 12.5341C10.974 12.3794 10.8486 12.2541 10.694 12.2541C10.5394 12.2541 10.4141 12.3794 10.4141 12.5341C10.4141 12.6886 10.5394 12.814 10.694 12.814Z" fill="#5158F6"/>
<path d="M5.04949 16.226C5.2041 16.226 5.32945 16.1007 5.32945 15.946C5.32945 15.7914 5.2041 15.6661 5.04949 15.6661C4.89487 15.6661 4.76953 15.7914 4.76953 15.946C4.76953 16.1007 4.89487 16.226 5.04949 16.226Z" fill="#5158F6"/>
<path d="M7.20444 14.7387C7.37451 14.7387 7.51239 14.6008 7.51239 14.4307C7.51239 14.2607 7.37451 14.1228 7.20444 14.1228C7.03436 14.1228 6.89648 14.2607 6.89648 14.4307C6.89648 14.6008 7.03436 14.7387 7.20444 14.7387Z" fill="#5158F6"/>
<path d="M10.4633 17.0938C10.6333 17.0938 10.7712 16.9559 10.7712 16.7859C10.7712 16.6158 10.6333 16.4779 10.4633 16.4779C10.2931 16.4779 10.1553 16.6158 10.1553 16.7859C10.1553 16.9559 10.2931 17.0938 10.4633 17.0938Z" fill="#5158F6"/>
<path d="M9.58774 15.7885C9.72303 15.7885 9.8327 15.6789 9.8327 15.5436C9.8327 15.4082 9.72303 15.2986 9.58774 15.2986C9.45245 15.2986 9.34277 15.4082 9.34277 15.5436C9.34277 15.6789 9.45245 15.7885 9.58774 15.7885Z" fill="#5158F6"/>
<path d="M5.92408 17.5628C6.12702 17.5628 6.29153 17.3982 6.29153 17.1953C6.29153 16.9924 6.12702 16.8279 5.92408 16.8279C5.72115 16.8279 5.55664 16.9924 5.55664 17.1953C5.55664 17.3982 5.72115 17.5628 5.92408 17.5628Z" fill="#5158F6"/>
<path d="M7.39056 8.46766C7.70173 8.46766 7.95398 8.21541 7.95398 7.90425C7.95398 7.59309 7.70173 7.34084 7.39056 7.34084C7.0794 7.34084 6.82715 7.59309 6.82715 7.90425C6.82715 8.21541 7.0794 8.46766 7.39056 8.46766Z" fill="#5158F6"/>
<path d="M6.51141 7.14485C6.85157 7.14485 7.12732 6.8691 7.12732 6.52894C7.12732 6.18879 6.85157 5.91304 6.51141 5.91304C6.17126 5.91304 5.89551 6.18879 5.89551 6.52894C5.89551 6.8691 6.17126 7.14485 6.51141 7.14485Z" fill="#5158F6"/>
<path d="M6.73936 9.85344C7.03119 9.85344 7.26778 9.61686 7.26778 9.32502C7.26778 9.03318 7.03119 8.7966 6.73936 8.7966C6.44752 8.7966 6.21094 9.03318 6.21094 9.32502C6.21094 9.61686 6.44752 9.85344 6.73936 9.85344Z" fill="#5158F6"/>
<path d="M8.26149 9.61895C8.56879 9.61895 8.81791 9.36983 8.81791 9.06253C8.81791 8.75523 8.56879 8.50612 8.26149 8.50612C7.95419 8.50612 7.70508 8.75523 7.70508 9.06253C7.70508 9.36983 7.95419 9.61895 8.26149 9.61895Z" fill="#5158F6"/>
<path d="M6.10907 11.0958C6.40284 11.0958 6.64098 10.8576 6.64098 10.5638C6.64098 10.2701 6.40284 10.0319 6.10907 10.0319C5.8153 10.0319 5.57715 10.2701 5.57715 10.5638C5.57715 10.8576 5.8153 11.0958 6.10907 11.0958Z" fill="#5158F6"/>
<path d="M7.61777 10.9453C7.89801 10.9453 8.12519 10.7181 8.12519 10.4379C8.12519 10.1576 7.89801 9.93044 7.61777 9.93044C7.33753 9.93044 7.11035 10.1576 7.11035 10.4379C7.11035 10.7181 7.33753 10.9453 7.61777 10.9453Z" fill="#5158F6"/>
<path d="M9.13624 10.7458C9.37976 10.7458 9.57718 10.5484 9.57718 10.3049C9.57718 10.0614 9.37976 9.86394 9.13624 9.86394C8.89272 9.86394 8.69531 10.0614 8.69531 10.3049C8.69531 10.5484 8.89272 10.7458 9.13624 10.7458Z" fill="#5158F6"/>
<path d="M8.49269 12.1246C8.73621 12.1246 8.93362 11.9272 8.93362 11.6836C8.93362 11.4401 8.73621 11.2427 8.49269 11.2427C8.24917 11.2427 8.05176 11.4401 8.05176 11.6836C8.05176 11.9272 8.24917 12.1246 8.49269 12.1246Z" fill="#5158F6"/>
<path d="M6.97414 12.2576C7.21766 12.2576 7.41507 12.0601 7.41507 11.8167C7.41507 11.5731 7.21766 11.3757 6.97414 11.3757C6.73062 11.3757 6.5332 11.5731 6.5332 11.8167C6.5332 12.0601 6.73062 12.2576 6.97414 12.2576Z" fill="#5158F6"/>
<path d="M6.334 13.6888C6.61231 13.6888 6.83793 13.4632 6.83793 13.1849C6.83793 12.9066 6.61231 12.681 6.334 12.681C6.05569 12.681 5.83008 12.9066 5.83008 13.1849C5.83008 13.4632 6.05569 13.6888 6.334 13.6888Z" fill="#5158F6"/>
<path d="M5.69305 15.0082C5.94043 15.0082 6.14098 14.8076 6.14098 14.5602C6.14098 14.3128 5.94043 14.1123 5.69305 14.1123C5.44566 14.1123 5.24512 14.3128 5.24512 14.5602C5.24512 14.8076 5.44566 15.0082 5.69305 15.0082Z" fill="#5158F6"/>
<path d="M10.2319 14.6617C10.5082 14.6617 10.7323 14.4377 10.7323 14.1613C10.7323 13.8849 10.5082 13.6609 10.2319 13.6609C9.95549 13.6609 9.73145 13.8849 9.73145 14.1613C9.73145 14.4377 9.95549 14.6617 10.2319 14.6617Z" fill="#5158F6"/>
<path d="M9.35353 13.4299C9.63184 13.4299 9.85745 13.2043 9.85745 12.9259C9.85745 12.6477 9.63184 12.422 9.35353 12.422C9.07522 12.422 8.84961 12.6477 8.84961 12.9259C8.84961 13.2043 9.07522 13.4299 9.35353 13.4299Z" fill="#5158F6"/>
<path d="M6.56056 16.317C6.83887 16.317 7.06448 16.0914 7.06448 15.813C7.06448 15.5347 6.83887 15.3091 6.56056 15.3091C6.28225 15.3091 6.05664 15.5347 6.05664 15.813C6.05664 16.0914 6.28225 16.317 6.56056 16.317Z" fill="#5158F6"/>
<path d="M5.45159 12.3206C5.65839 12.3206 5.82603 12.1529 5.82603 11.9461C5.82603 11.7393 5.65839 11.5717 5.45159 11.5717C5.24479 11.5717 5.07715 11.7393 5.07715 11.9461C5.07715 12.1529 5.24479 12.3206 5.45159 12.3206Z" fill="#5158F6"/>
<path d="M10.0082 11.9216C10.215 11.9216 10.3827 11.754 10.3827 11.5472C10.3827 11.3404 10.215 11.1727 10.0082 11.1727C9.80143 11.1727 9.63379 11.3404 9.63379 11.5472C9.63379 11.754 9.80143 11.9216 10.0082 11.9216Z" fill="#5158F6"/>
<path d="M5.87868 8.50263C6.18598 8.50263 6.43509 8.25352 6.43509 7.94622C6.43509 7.63892 6.18598 7.3898 5.87868 7.3898C5.57138 7.3898 5.32227 7.63892 5.32227 7.94622C5.32227 8.25352 5.57138 8.50263 5.87868 8.50263Z" fill="#5158F6"/>
<path d="M11.9121 14.6617C12.1208 14.6617 12.29 14.4925 12.29 14.2838C12.29 14.075 12.1208 13.9058 11.9121 13.9058C11.7034 13.9058 11.5342 14.075 11.5342 14.2838C11.5342 14.4925 11.7034 14.6617 11.9121 14.6617Z" fill="#5158F6"/>
<path d="M19.1135 13.5384C19.2332 13.5384 19.3304 13.4413 19.3304 13.3214C19.3304 13.2016 19.2332 13.1045 19.1135 13.1045C18.9936 13.1045 18.8965 13.2016 18.8965 13.3214C18.8965 13.4413 18.9936 13.5384 19.1135 13.5384Z" fill="#5158F6"/>
<path d="M16.0939 13.2759C16.2138 13.2759 16.3109 13.1788 16.3109 13.059C16.3109 12.9391 16.2138 12.842 16.0939 12.842C15.9741 12.842 15.877 12.9391 15.877 13.059C15.877 13.1788 15.9741 13.2759 16.0939 13.2759Z" fill="#5158F6"/>
<path d="M15.2257 14.5182C15.3455 14.5182 15.4427 14.421 15.4427 14.3013C15.4427 14.1814 15.3455 14.0843 15.2257 14.0843C15.1059 14.0843 15.0088 14.1814 15.0088 14.3013C15.0088 14.421 15.1059 14.5182 15.2257 14.5182Z" fill="#5158F6"/>
<path d="M12.6534 13.6083C12.7733 13.6083 12.8704 13.5112 12.8704 13.3914C12.8704 13.2715 12.7733 13.1744 12.6534 13.1744C12.5336 13.1744 12.4365 13.2715 12.4365 13.3914C12.4365 13.5112 12.5336 13.6083 12.6534 13.6083Z" fill="#5158F6"/>
<path d="M18.9387 6.92089C19.0585 6.92089 19.1556 6.82375 19.1556 6.70392C19.1556 6.58409 19.0585 6.48695 18.9387 6.48695C18.8188 6.48695 18.7217 6.58409 18.7217 6.70392C18.7217 6.82375 18.8188 6.92089 18.9387 6.92089Z" fill="#5158F6"/>
<path d="M18.7109 9.66448C18.8965 9.66448 19.0469 9.51407 19.0469 9.32854C19.0469 9.143 18.8965 8.99258 18.7109 8.99258C18.5254 8.99258 18.375 9.143 18.375 9.32854C18.375 9.51407 18.5254 9.66448 18.7109 9.66448Z" fill="#5158F6"/>
<path d="M13.2516 12.814C13.4062 12.814 13.5316 12.6886 13.5316 12.5341C13.5316 12.3794 13.4062 12.2541 13.2516 12.2541C13.097 12.2541 12.9717 12.3794 12.9717 12.5341C12.9717 12.6886 13.097 12.814 13.2516 12.814Z" fill="#5158F6"/>
<path d="M18.8932 16.226C19.0478 16.226 19.1732 16.1007 19.1732 15.946C19.1732 15.7914 19.0478 15.6661 18.8932 15.6661C18.7386 15.6661 18.6133 15.7914 18.6133 15.946C18.6133 16.1007 18.7386 16.226 18.8932 16.226Z" fill="#5158F6"/>
<path d="M16.7376 14.7387C16.9077 14.7387 17.0456 14.6008 17.0456 14.4307C17.0456 14.2607 16.9077 14.1228 16.7376 14.1228C16.5676 14.1228 16.4297 14.2607 16.4297 14.4307C16.4297 14.6008 16.5676 14.7387 16.7376 14.7387Z" fill="#5158F6"/>
<path d="M13.4827 17.0938C13.6528 17.0938 13.7907 16.9559 13.7907 16.7859C13.7907 16.6158 13.6528 16.4779 13.4827 16.4779C13.3127 16.4779 13.1748 16.6158 13.1748 16.7859C13.1748 16.9559 13.3127 17.0938 13.4827 17.0938Z" fill="#5158F6"/>
<path d="M14.3543 15.7885C14.4896 15.7885 14.5993 15.6789 14.5993 15.5436C14.5993 15.4082 14.4896 15.2986 14.3543 15.2986C14.219 15.2986 14.1094 15.4082 14.1094 15.5436C14.1094 15.6789 14.219 15.7885 14.3543 15.7885Z" fill="#5158F6"/>
<path d="M18.0178 17.5628C18.2208 17.5628 18.3853 17.3982 18.3853 17.1953C18.3853 16.9924 18.2208 16.8279 18.0178 16.8279C17.8149 16.8279 17.6504 16.9924 17.6504 17.1953C17.6504 17.3982 17.8149 17.5628 18.0178 17.5628Z" fill="#5158F6"/>
<path d="M16.5517 8.46766C16.8629 8.46766 17.1151 8.21541 17.1151 7.90425C17.1151 7.59309 16.8629 7.34084 16.5517 7.34084C16.2406 7.34084 15.9883 7.59309 15.9883 7.90425C15.9883 8.21541 16.2406 8.46766 16.5517 8.46766Z" fill="#5158F6"/>
<path d="M17.4304 7.14485C17.7705 7.14485 18.0463 6.8691 18.0463 6.52894C18.0463 6.18879 17.7705 5.91304 17.4304 5.91304C17.0902 5.91304 16.8145 6.18879 16.8145 6.52894C16.8145 6.8691 17.0902 7.14485 17.4304 7.14485Z" fill="#5158F6"/>
<path d="M17.2032 9.85344C17.495 9.85344 17.7316 9.61686 17.7316 9.32502C17.7316 9.03318 17.495 8.7966 17.2032 8.7966C16.9114 8.7966 16.6748 9.03318 16.6748 9.32502C16.6748 9.61686 16.9114 9.85344 17.2032 9.85344Z" fill="#5158F6"/>
<path d="M15.6843 9.61895C15.9917 9.61895 16.2407 9.36983 16.2407 9.06253C16.2407 8.75523 15.9917 8.50612 15.6843 8.50612C15.3771 8.50612 15.1279 8.75523 15.1279 9.06253C15.1279 9.36983 15.3771 9.61895 15.6843 9.61895Z" fill="#5158F6"/>
<path d="M17.8327 11.0958C18.1264 11.0958 18.3646 10.8576 18.3646 10.5638C18.3646 10.2701 18.1264 10.0319 17.8327 10.0319C17.5389 10.0319 17.3008 10.2701 17.3008 10.5638C17.3008 10.8576 17.5389 11.0958 17.8327 11.0958Z" fill="#5158F6"/>
<path d="M16.3277 10.9453C16.608 10.9453 16.8352 10.7181 16.8352 10.4379C16.8352 10.1576 16.608 9.93044 16.3277 9.93044C16.0475 9.93044 15.8203 10.1576 15.8203 10.4379C15.8203 10.7181 16.0475 10.9453 16.3277 10.9453Z" fill="#5158F6"/>
<path d="M14.8091 10.7458C15.0526 10.7458 15.25 10.5484 15.25 10.3049C15.25 10.0614 15.0526 9.86394 14.8091 9.86394C14.5655 9.86394 14.3682 10.0614 14.3682 10.3049C14.3682 10.5484 14.5655 10.7458 14.8091 10.7458Z" fill="#5158F6"/>
<path d="M15.4497 12.1246C15.6932 12.1246 15.8907 11.9272 15.8907 11.6836C15.8907 11.4401 15.6932 11.2427 15.4497 11.2427C15.2062 11.2427 15.0088 11.4401 15.0088 11.6836C15.0088 11.9272 15.2062 12.1246 15.4497 12.1246Z" fill="#5158F6"/>
<path d="M16.9722 12.2576C17.2157 12.2576 17.4131 12.0602 17.4131 11.8167C17.4131 11.5731 17.2157 11.3757 16.9722 11.3757C16.7287 11.3757 16.5312 11.5731 16.5312 11.8167C16.5312 12.0602 16.7287 12.2576 16.9722 12.2576Z" fill="#5158F6"/>
<path d="M17.6084 13.6888C17.8867 13.6888 18.1123 13.4632 18.1123 13.1849C18.1123 12.9066 17.8867 12.681 17.6084 12.681C17.3301 12.681 17.1045 12.9066 17.1045 13.1849C17.1045 13.4632 17.3301 13.6888 17.6084 13.6888Z" fill="#5158F6"/>
<path d="M18.2487 15.0082C18.4961 15.0082 18.6967 14.8076 18.6967 14.5602C18.6967 14.3128 18.4961 14.1123 18.2487 14.1123C18.0013 14.1123 17.8008 14.3128 17.8008 14.5602C17.8008 14.8076 18.0013 15.0082 18.2487 15.0082Z" fill="#5158F6"/>
<path d="M13.7104 14.6617C13.9868 14.6617 14.2108 14.4377 14.2108 14.1613C14.2108 13.8849 13.9868 13.6609 13.7104 13.6609C13.434 13.6609 13.21 13.8849 13.21 14.1613C13.21 14.4377 13.434 14.6617 13.7104 14.6617Z" fill="#5158F6"/>
<path d="M14.5889 13.4299C14.8672 13.4299 15.0928 13.2043 15.0928 12.9259C15.0928 12.6477 14.8672 12.422 14.5889 12.422C14.3106 12.422 14.085 12.6477 14.085 12.9259C14.085 13.2043 14.3106 13.4299 14.5889 13.4299Z" fill="#5158F6"/>
<path d="M17.3848 16.317C17.6631 16.317 17.8887 16.0914 17.8887 15.813C17.8887 15.5347 17.6631 15.3091 17.3848 15.3091C17.1065 15.3091 16.8809 15.5347 16.8809 15.813C16.8809 16.0914 17.1065 16.317 17.3848 16.317Z" fill="#5158F6"/>
<path d="M18.4907 12.3206C18.6974 12.3206 18.8651 12.1529 18.8651 11.9461C18.8651 11.7393 18.6974 11.5717 18.4907 11.5717C18.2838 11.5717 18.1162 11.7393 18.1162 11.9461C18.1162 12.1529 18.2838 12.3206 18.4907 12.3206Z" fill="#5158F6"/>
<path d="M13.9379 11.9216C14.1447 11.9216 14.3124 11.754 14.3124 11.5472C14.3124 11.3404 14.1447 11.1727 13.9379 11.1727C13.7311 11.1727 13.5635 11.3404 13.5635 11.5472C13.5635 11.754 13.7311 11.9216 13.9379 11.9216Z" fill="#5158F6"/>
<path d="M18.0672 8.50263C18.3745 8.50263 18.6236 8.25352 18.6236 7.94622C18.6236 7.63892 18.3745 7.3898 18.0672 7.3898C17.7599 7.3898 17.5107 7.63892 17.5107 7.94622C17.5107 8.25352 17.7599 8.50263 18.0672 8.50263Z" fill="#5158F6"/>
<path d="M12.0342 14.6617C12.2429 14.6617 12.4121 14.4925 12.4121 14.2838C12.4121 14.075 12.2429 13.9058 12.0342 13.9058C11.8255 13.9058 11.6562 14.075 11.6562 14.2838C11.6562 14.4925 11.8255 14.6617 12.0342 14.6617Z" fill="#5158F6"/>
<path d="M11.9712 14.7247C12.2147 14.7247 12.4121 14.5273 12.4121 14.2838C12.4121 14.0402 12.2147 13.8429 11.9712 13.8429C11.7276 13.8429 11.5303 14.0402 11.5303 14.2838C11.5303 14.5273 11.7276 14.7247 11.9712 14.7247Z" fill="#5158F6"/>
<path d="M11.9712 17.1288C12.2147 17.1288 12.4121 16.9314 12.4121 16.6879C12.4121 16.4444 12.2147 16.2469 11.9712 16.2469C11.7276 16.2469 11.5303 16.4444 11.5303 16.6879C11.5303 16.9314 11.7276 17.1288 11.9712 17.1288Z" fill="#5158F6"/>
<path d="M11.1001 15.8515C11.3437 15.8515 11.541 15.6541 11.541 15.4106C11.541 15.167 11.3437 14.9696 11.1001 14.9696C10.8566 14.9696 10.6592 15.167 10.6592 15.4106C10.6592 15.6541 10.8566 15.8515 11.1001 15.8515Z" fill="#5158F6"/>
<path d="M12.8423 15.8515C13.0858 15.8515 13.2832 15.6541 13.2832 15.4106C13.2832 15.167 13.0858 14.9696 12.8423 14.9696C12.5987 14.9696 12.4014 15.167 12.4014 15.4106C12.4014 15.6541 12.5987 15.8515 12.8423 15.8515Z" fill="#5158F6"/>
<path d="M11.3306 18.2241C11.4349 18.2241 11.5195 18.1395 11.5195 18.0352C11.5195 17.9308 11.4349 17.8462 11.3306 17.8462C11.2262 17.8462 11.1416 17.9308 11.1416 18.0352C11.1416 18.1395 11.2262 18.2241 11.3306 18.2241Z" fill="#5158F6"/>
<path d="M12.6147 18.2241C12.7191 18.2241 12.8037 18.1395 12.8037 18.0352C12.8037 17.9308 12.7191 17.8462 12.6147 17.8462C12.5104 17.8462 12.4258 17.9308 12.4258 18.0352C12.4258 18.1395 12.5104 18.2241 12.6147 18.2241Z" fill="#5158F6"/>
</g>
<defs>
<clipPath id="clip0_95_2454">
<rect width="14.7692" height="12.3258" fill="white" transform="translate(4.61523 5.91304)"/>
</clipPath>
</defs>
</svg>
