<svg width="217" height="162" viewBox="0 0 217 162" fill="none" xmlns="http://www.w3.org/2000/svg">
<path d="M3.18512 105.952C4.94424 105.952 6.37028 104.602 6.37028 102.938C6.37028 101.273 4.94424 99.9229 3.18512 99.9229C1.42603 99.9229 0 101.273 0 102.938C0 104.602 1.42603 105.952 3.18512 105.952Z" fill="#313144"/>
<path d="M47.4688 102.304C49.2278 102.304 50.654 100.955 50.654 99.2897C50.654 97.6248 49.2278 96.275 47.4688 96.275C45.7098 96.275 44.2836 97.6248 44.2836 99.2897C44.2836 100.955 45.7098 102.304 47.4688 102.304Z" fill="#313144"/>
<path d="M60.2608 119.567C62.0198 119.567 63.4458 118.217 63.4458 116.552C63.4458 114.887 62.0198 113.537 60.2608 113.537C58.5018 113.537 57.0756 114.887 57.0756 116.552C57.0756 118.217 58.5018 119.567 60.2608 119.567Z" fill="#313144"/>
<path d="M98.0195 106.925C99.7785 106.925 101.204 105.575 101.204 103.91C101.204 102.245 99.7785 100.895 98.0195 100.895C96.2602 100.895 94.8342 102.245 94.8342 103.91C94.8342 105.575 96.2602 106.925 98.0195 106.925Z" fill="#313144"/>
<path d="M5.75398 14.0034C7.5131 14.0034 8.93913 12.6537 8.93913 10.9887C8.93913 9.32371 7.5131 7.974 5.75398 7.974C3.99489 7.974 2.56885 9.32371 2.56885 10.9887C2.56885 12.6537 3.99489 14.0034 5.75398 14.0034Z" fill="#313144"/>
<path d="M9.09345 52.1244C11.8172 52.1244 14.0253 50.0344 14.0253 47.4566C14.0253 44.8785 11.8172 42.7885 9.09345 42.7885C6.36968 42.7885 4.16162 44.8785 4.16162 47.4566C4.16162 50.0344 6.36968 52.1244 9.09345 52.1244Z" fill="#313144"/>
<path d="M89.2351 95.8863C91.505 95.8863 93.345 94.1448 93.345 91.9963C93.345 89.8481 91.505 88.1064 89.2351 88.1064C86.9653 88.1064 85.1252 89.8481 85.1252 91.9963C85.1252 94.1448 86.9653 95.8863 89.2351 95.8863Z" fill="#313144"/>
<path d="M6.37107 143.296C8.6409 143.296 10.4809 141.554 10.4809 139.406C10.4809 137.257 8.6409 135.516 6.37107 135.516C4.10127 135.516 2.26123 137.257 2.26123 139.406C2.26123 141.554 4.10127 143.296 6.37107 143.296Z" fill="#313144"/>
<path d="M38.0669 122.63C40.5636 122.63 42.5877 120.714 42.5877 118.351C42.5877 115.988 40.5636 114.072 38.0669 114.072C35.5701 114.072 33.546 115.988 33.546 118.351C33.546 120.714 35.5701 122.63 38.0669 122.63Z" fill="#313144"/>
<path d="M73.002 137.217C74.9879 137.217 76.5981 135.693 76.5981 133.814C76.5981 131.934 74.9879 130.41 73.002 130.41C71.0157 130.41 69.4058 131.934 69.4058 133.814C69.4058 135.693 71.0157 137.217 73.002 137.217Z" fill="#313144"/>
<path d="M19.2647 161.87C22.2438 161.87 24.6588 159.584 24.6588 156.765C24.6588 153.945 22.2438 151.659 19.2647 151.659C16.2855 151.659 13.8705 153.945 13.8705 156.765C13.8705 159.584 16.2855 161.87 19.2647 161.87Z" fill="#313144"/>
<path d="M40.7399 35.4945C45.3079 35.4945 49.0111 31.9898 49.0111 27.6662C49.0111 23.3426 45.3079 19.8377 40.7399 19.8377C36.1719 19.8377 32.469 23.3426 32.469 27.6662C32.469 31.9898 36.1719 35.4945 40.7399 35.4945Z" fill="#313144"/>
<path d="M27.8966 17.1157C32.8904 17.1157 36.9384 13.2842 36.9384 8.55785C36.9384 3.83148 32.8904 0 27.8966 0C22.9032 0 18.8551 3.83148 18.8551 8.55785C18.8551 13.2842 22.9032 17.1157 27.8966 17.1157Z" fill="#313144"/>
<path d="M31.2347 54.751C35.5189 54.751 38.9919 51.4638 38.9919 47.4088C38.9919 43.3537 35.5189 40.0665 31.2347 40.0665C26.9503 40.0665 23.4773 43.3537 23.4773 47.4088C23.4773 51.4638 26.9503 54.751 31.2347 54.751Z" fill="#313144"/>
<path d="M53.5316 51.4925C58.0426 51.4925 61.6997 48.0311 61.6997 43.7613C61.6997 39.4914 58.0426 36.0301 53.5316 36.0301C49.0203 36.0301 45.3632 39.4914 45.3632 43.7613C45.3632 48.0311 49.0203 51.4925 53.5316 51.4925Z" fill="#313144"/>
<path d="M21.9357 72.0119C26.2483 72.0119 29.7443 68.7029 29.7443 64.621C29.7443 60.5391 26.2483 57.23 21.9357 57.23C17.623 57.23 14.127 60.5391 14.127 64.621C14.127 68.7029 17.623 72.0119 21.9357 72.0119Z" fill="#313144"/>
<path d="M44.0784 69.9216C48.1923 69.9216 51.5274 66.7649 51.5274 62.871C51.5274 58.9772 48.1923 55.8205 44.0784 55.8205C39.9643 55.8205 36.6292 58.9772 36.6292 62.871C36.6292 66.7649 39.9643 69.9216 44.0784 69.9216Z" fill="#313144"/>
<path d="M66.3739 67.1492C69.9489 67.1492 72.8469 64.4063 72.8469 61.0227C72.8469 57.6389 69.9489 54.896 66.3739 54.896C62.7989 54.896 59.901 57.6389 59.901 61.0227C59.901 64.4063 62.7989 67.1492 66.3739 67.1492Z" fill="#313144"/>
<path d="M56.9728 86.3076C60.5476 86.3076 63.4458 83.5644 63.4458 80.1809C63.4458 76.7973 60.5476 74.0541 56.9728 74.0541C53.3978 74.0541 50.4996 76.7973 50.4996 80.1809C50.4996 83.5644 53.3978 86.3076 56.9728 86.3076Z" fill="#313144"/>
<path d="M34.6263 88.1552C38.201 88.1552 41.0992 85.4123 41.0992 82.0285C41.0992 78.6449 38.201 75.902 34.6263 75.902C31.0513 75.902 28.1531 78.6449 28.1531 82.0285C28.1531 85.4123 31.0513 88.1552 34.6263 88.1552Z" fill="#313144"/>
<path d="M25.2753 108.043C29.3609 108.043 32.6729 104.908 32.6729 101.041C32.6729 97.1738 29.3609 94.0392 25.2753 94.0392C21.1896 94.0392 17.8776 97.1738 17.8776 101.041C17.8776 104.908 21.1896 108.043 25.2753 108.043Z" fill="#313144"/>
<path d="M15.8227 126.373C19.4544 126.373 22.3985 123.587 22.3985 120.149C22.3985 116.712 19.4544 113.925 15.8227 113.925C12.191 113.925 9.24695 116.712 9.24695 120.149C9.24695 123.587 12.191 126.373 15.8227 126.373Z" fill="#313144"/>
<path d="M82.4538 121.56C86.5112 121.56 89.8003 118.447 89.8003 114.607C89.8003 110.767 86.5112 107.654 82.4538 107.654C78.3966 107.654 75.1075 110.767 75.1075 114.607C75.1075 118.447 78.3966 121.56 82.4538 121.56Z" fill="#313144"/>
<path d="M69.6098 104.445C73.6953 104.445 77.0076 101.311 77.0076 97.4437C77.0076 93.5766 73.6953 90.4417 69.6098 90.4417C65.5242 90.4417 62.2122 93.5766 62.2122 97.4437C62.2122 101.311 65.5242 104.445 69.6098 104.445Z" fill="#313144"/>
<path d="M28.5627 144.559C32.6482 144.559 35.9603 141.424 35.9603 137.557C35.9603 133.69 32.6482 130.555 28.5627 130.555C24.477 130.555 21.1649 133.69 21.1649 137.557C21.1649 141.424 24.477 144.559 28.5627 144.559Z" fill="#313144"/>
<path d="M12.3307 89.0303C15.3665 89.0303 17.8276 86.7009 17.8276 83.8274C17.8276 80.954 15.3665 78.6246 12.3307 78.6246C9.29478 78.6246 6.83374 80.954 6.83374 83.8274C6.83374 86.7009 9.29478 89.0303 12.3307 89.0303Z" fill="#313144"/>
<path d="M79.1662 83.4877C82.2021 83.4877 84.6631 81.1585 84.6631 78.2851C84.6631 75.4117 82.2021 73.0823 79.1662 73.0823C76.1303 73.0823 73.6693 75.4117 73.6693 78.2851C73.6693 81.1585 76.1303 83.4877 79.1662 83.4877Z" fill="#313144"/>
<path d="M18.5447 35.9816C23.0559 35.9816 26.7131 32.5202 26.7131 28.2504C26.7131 23.9805 23.0559 20.5191 18.5447 20.5191C14.0334 20.5191 10.3763 23.9805 10.3763 28.2504C10.3763 32.5202 14.0334 35.9816 18.5447 35.9816Z" fill="#313144"/>
<path d="M212.839 105.952C214.598 105.952 216.024 104.602 216.024 102.938C216.024 101.273 214.598 99.9229 212.839 99.9229C211.08 99.9229 209.654 101.273 209.654 102.938C209.654 104.602 211.08 105.952 212.839 105.952Z" fill="#313144"/>
<path d="M168.555 102.304C170.314 102.304 171.74 100.955 171.74 99.2897C171.74 97.6248 170.314 96.275 168.555 96.275C166.796 96.275 165.369 97.6248 165.369 99.2897C165.369 100.955 166.796 102.304 168.555 102.304Z" fill="#313144"/>
<path d="M155.763 119.567C157.523 119.567 158.949 118.217 158.949 116.552C158.949 114.887 157.523 113.537 155.763 113.537C154.004 113.537 152.578 114.887 152.578 116.552C152.578 118.217 154.004 119.567 155.763 119.567Z" fill="#313144"/>
<path d="M118.004 106.925C119.763 106.925 121.189 105.575 121.189 103.91C121.189 102.245 119.763 100.895 118.004 100.895C116.245 100.895 114.819 102.245 114.819 103.91C114.819 105.575 116.245 106.925 118.004 106.925Z" fill="#313144"/>
<path d="M210.27 14.0034C212.029 14.0034 213.455 12.6537 213.455 10.9887C213.455 9.32371 212.029 7.974 210.27 7.974C208.511 7.974 207.085 9.32371 207.085 10.9887C207.085 12.6537 208.511 14.0034 210.27 14.0034Z" fill="#313144"/>
<path d="M206.932 52.1244C209.655 52.1244 211.864 50.0344 211.864 47.4566C211.864 44.8785 209.655 42.7885 206.932 42.7885C204.208 42.7885 202 44.8785 202 47.4566C202 50.0344 204.208 52.1244 206.932 52.1244Z" fill="#313144"/>
<path d="M126.79 95.8863C129.059 95.8863 130.899 94.1448 130.899 91.9963C130.899 89.8481 129.059 88.1064 126.79 88.1064C124.52 88.1064 122.68 89.8481 122.68 91.9963C122.68 94.1448 124.52 95.8863 126.79 95.8863Z" fill="#313144"/>
<path d="M209.654 143.296C211.923 143.296 213.763 141.554 213.763 139.406C213.763 137.257 211.923 135.516 209.654 135.516C207.384 135.516 205.544 137.257 205.544 139.406C205.544 141.554 207.384 143.296 209.654 143.296Z" fill="#313144"/>
<path d="M177.955 122.63C180.452 122.63 182.476 120.714 182.476 118.351C182.476 115.988 180.452 114.072 177.955 114.072C175.459 114.072 173.435 115.988 173.435 118.351C173.435 120.714 175.459 122.63 177.955 122.63Z" fill="#313144"/>
<path d="M143.024 137.217C145.01 137.217 146.62 135.693 146.62 133.814C146.62 131.934 145.01 130.41 143.024 130.41C141.038 130.41 139.428 131.934 139.428 133.814C139.428 135.693 141.038 137.217 143.024 137.217Z" fill="#313144"/>
<path d="M196.759 161.87C199.738 161.87 202.153 159.584 202.153 156.765C202.153 153.945 199.738 151.659 196.759 151.659C193.78 151.659 191.365 153.945 191.365 156.765C191.365 159.584 193.78 161.87 196.759 161.87Z" fill="#313144"/>
<path d="M175.285 35.4945C179.853 35.4945 183.556 31.9898 183.556 27.6662C183.556 23.3426 179.853 19.8377 175.285 19.8377C170.717 19.8377 167.014 23.3426 167.014 27.6662C167.014 31.9898 170.717 35.4945 175.285 35.4945Z" fill="#313144"/>
<path d="M188.128 17.1157C193.122 17.1157 197.17 13.2842 197.17 8.55785C197.17 3.83148 193.122 0 188.128 0C183.135 0 179.087 3.83148 179.087 8.55785C179.087 13.2842 183.135 17.1157 188.128 17.1157Z" fill="#313144"/>
<path d="M184.791 54.751C189.075 54.751 192.548 51.4638 192.548 47.4088C192.548 43.3537 189.075 40.0665 184.791 40.0665C180.506 40.0665 177.033 43.3537 177.033 47.4088C177.033 51.4638 180.506 54.751 184.791 54.751Z" fill="#313144"/>
<path d="M162.492 51.4925C167.004 51.4925 170.661 48.0311 170.661 43.7613C170.661 39.4914 167.004 36.0301 162.492 36.0301C157.981 36.0301 154.324 39.4914 154.324 43.7613C154.324 48.0311 157.981 51.4925 162.492 51.4925Z" fill="#313144"/>
<path d="M194.089 72.0119C198.402 72.0119 201.898 68.7029 201.898 64.621C201.898 60.5391 198.402 57.23 194.089 57.23C189.776 57.23 186.28 60.5391 186.28 64.621C186.28 68.7029 189.776 72.0119 194.089 72.0119Z" fill="#313144"/>
<path d="M171.946 69.9216C176.06 69.9216 179.395 66.7649 179.395 62.871C179.395 58.9772 176.06 55.8205 171.946 55.8205C167.832 55.8205 164.496 58.9772 164.496 62.871C164.496 66.7649 167.832 69.9216 171.946 69.9216Z" fill="#313144"/>
<path d="M149.649 67.1492C153.224 67.1492 156.122 64.4063 156.122 61.0227C156.122 57.6389 153.224 54.896 149.649 54.896C146.074 54.896 143.176 57.6389 143.176 61.0227C143.176 64.4063 146.074 67.1492 149.649 67.1492Z" fill="#313144"/>
<path d="M159.051 86.3076C162.626 86.3076 165.524 83.5644 165.524 80.1809C165.524 76.7973 162.626 74.0541 159.051 74.0541C155.476 74.0541 152.578 76.7973 152.578 80.1809C152.578 83.5644 155.476 86.3076 159.051 86.3076Z" fill="#313144"/>
<path d="M181.988 88.0461C185.563 88.0461 188.461 85.3032 188.461 81.9193C188.461 78.5358 185.563 75.7928 181.988 75.7928C178.413 75.7928 175.515 78.5358 175.515 81.9193C175.515 85.3032 178.413 88.0461 181.988 88.0461Z" fill="#313144"/>
<path d="M190.748 108.043C194.834 108.043 198.146 104.908 198.146 101.041C198.146 97.1738 194.834 94.0392 190.748 94.0392C186.662 94.0392 183.35 97.1738 183.35 101.041C183.35 104.908 186.662 108.043 190.748 108.043Z" fill="#313144"/>
<path d="M200.201 126.373C203.833 126.373 206.777 123.587 206.777 120.149C206.777 116.712 203.833 113.925 200.201 113.925C196.57 113.925 193.626 116.712 193.626 120.149C193.626 123.587 196.57 126.373 200.201 126.373Z" fill="#313144"/>
<path d="M133.569 121.56C137.626 121.56 140.915 118.447 140.915 114.607C140.915 110.767 137.626 107.654 133.569 107.654C129.512 107.654 126.222 110.767 126.222 114.607C126.222 118.447 129.512 121.56 133.569 121.56Z" fill="#313144"/>
<path d="M146.413 104.445C150.499 104.445 153.811 101.311 153.811 97.4437C153.811 93.5766 150.499 90.4417 146.413 90.4417C142.328 90.4417 139.016 93.5766 139.016 97.4437C139.016 101.311 142.328 104.445 146.413 104.445Z" fill="#313144"/>
<path d="M187.461 144.559C191.546 144.559 194.858 141.424 194.858 137.557C194.858 133.69 191.546 130.555 187.461 130.555C183.375 130.555 180.063 133.69 180.063 137.557C180.063 141.424 183.375 144.559 187.461 144.559Z" fill="#313144"/>
<path d="M203.694 89.0303C206.73 89.0303 209.191 86.7009 209.191 83.8274C209.191 80.954 206.73 78.6246 203.694 78.6246C200.658 78.6246 198.197 80.954 198.197 83.8274C198.197 86.7009 200.658 89.0303 203.694 89.0303Z" fill="#313144"/>
<path d="M136.858 83.4877C139.894 83.4877 142.355 81.1585 142.355 78.2851C142.355 75.4117 139.894 73.0823 136.858 73.0823C133.822 73.0823 131.361 75.4117 131.361 78.2851C131.361 81.1585 133.822 83.4877 136.858 83.4877Z" fill="#313144"/>
<path d="M197.478 35.9816C201.99 35.9816 205.646 32.5202 205.646 28.2504C205.646 23.9805 201.99 20.5191 197.478 20.5191C192.967 20.5191 189.31 23.9805 189.31 28.2504C189.31 32.5202 192.967 35.9816 197.478 35.9816Z" fill="#313144"/>
<path d="M95.2454 138.093C98.8204 138.093 101.718 135.35 101.718 131.966C101.718 128.582 98.8204 125.839 95.2454 125.839C91.6704 125.839 88.7725 128.582 88.7725 131.966C88.7725 135.35 91.6704 138.093 95.2454 138.093Z" fill="#313144"/>
<path d="M120.779 138.093C124.354 138.093 127.252 135.35 127.252 131.966C127.252 128.582 124.354 125.839 120.779 125.839C117.204 125.839 114.306 128.582 114.306 131.966C114.306 135.35 117.204 138.093 120.779 138.093Z" fill="#313144"/>
<path d="M108.037 122.436C111.045 122.436 113.483 120.128 113.483 117.281C113.483 114.435 111.045 112.127 108.037 112.127C105.03 112.127 102.592 114.435 102.592 117.281C102.592 120.128 105.03 122.436 108.037 122.436Z" fill="#313144"/>
<path d="M85.8451 154.478C87.8313 154.478 89.4413 152.954 89.4413 151.075C89.4413 149.195 87.8313 147.671 85.8451 147.671C83.8591 147.671 82.2489 149.195 82.2489 151.075C82.2489 152.954 83.8591 154.478 85.8451 154.478Z" fill="#313144"/>
<path d="M130.178 154.478C132.164 154.478 133.774 152.954 133.774 151.075C133.774 149.195 132.164 147.671 130.178 147.671C128.192 147.671 126.582 149.195 126.582 151.075C126.582 152.954 128.192 154.478 130.178 154.478Z" fill="#313144"/>
<path d="M108.037 154.868C111.045 154.868 113.483 152.56 113.483 149.713C113.483 146.867 111.045 144.559 108.037 144.559C105.03 144.559 102.592 146.867 102.592 149.713C102.592 152.56 105.03 154.868 108.037 154.868Z" fill="#313144"/>
</svg>
