<svg width="85" height="22" viewBox="0 0 85 22" fill="none" xmlns="http://www.w3.org/2000/svg">
<g clip-path="url(#clip0_38_3203)">
<path d="M43.8403 8.93747L43.8318 3.99572L41.3619 8.17022H41.1512L38.6813 4.01222V8.93747H38.2598V3.16247H38.6222L41.2608 7.62572L43.8993 3.16247H44.2533L44.2617 8.93747H43.8403ZM48.966 8.97872C48.2186 8.97872 47.637 8.76697 47.2211 8.34347C46.8108 7.91997 46.6057 7.30122 46.6057 6.48722V3.16247H47.0356V6.47072C47.0356 7.18022 47.2014 7.71097 47.533 8.06297C47.8646 8.41497 48.345 8.59097 48.9745 8.59097C49.5983 8.59097 50.076 8.41497 50.4075 8.06297C50.7391 7.71097 50.9049 7.18022 50.9049 6.47072V3.16247H51.3348V6.48722C51.3348 7.30122 51.1269 7.91997 50.711 8.34347C50.2951 8.76697 49.7135 8.97872 48.966 8.97872ZM56.1816 8.97872C55.6028 8.97872 55.0801 8.85222 54.6137 8.59922C54.1473 8.34072 53.7792 7.98872 53.5094 7.54322C53.2453 7.09772 53.1132 6.59997 53.1132 6.04997C53.1132 5.49997 53.2453 5.00222 53.5094 4.55672C53.7792 4.11122 54.1473 3.76197 54.6137 3.50897C55.0801 3.25047 55.6028 3.12122 56.1816 3.12122C56.7605 3.12122 57.2831 3.24772 57.7496 3.50072C58.216 3.75372 58.5813 4.10297 58.8454 4.54847C59.1152 4.99397 59.2501 5.49447 59.2501 6.04997C59.2501 6.60547 59.1152 7.10597 58.8454 7.55147C58.5813 7.99697 58.216 8.34622 57.7496 8.59922C57.2831 8.85222 56.7605 8.97872 56.1816 8.97872ZM56.1816 8.59097C56.6762 8.59097 57.123 8.48097 57.522 8.26097C57.921 8.04097 58.2357 7.73847 58.4661 7.35347C58.6965 6.96297 58.8117 6.52847 58.8117 6.04997C58.8117 5.57147 58.6965 5.13972 58.4661 4.75472C58.2357 4.36422 57.921 4.05897 57.522 3.83897C57.123 3.61897 56.6762 3.50897 56.1816 3.50897C55.6871 3.50897 55.2375 3.61897 54.8329 3.83897C54.4339 4.05897 54.1192 4.36422 53.8887 4.75472C53.6583 5.13972 53.5431 5.57147 53.5431 6.04997C53.5431 6.52847 53.6583 6.96297 53.8887 7.35347C54.1192 7.73847 54.4339 8.04097 54.8329 8.26097C55.2375 8.48097 55.6871 8.59097 56.1816 8.59097ZM65.8834 3.16247V8.93747H65.5293L61.5083 3.92147V8.93747H61.0784V3.16247H61.4409L65.4534 8.17847V3.16247H65.8834ZM43.0647 13.475V19.25H42.7107L38.6897 14.234V19.25H38.2598V13.475H38.6222L42.6348 18.491V13.475H43.0647ZM49.5341 18.8705V19.25H45.4626V13.475H49.4077V13.8545H45.8925V16.1315H49.0368V16.5027H45.8925V18.8705H49.5341ZM52.5684 13.8545H50.4441V13.475H55.1226V13.8545H52.9983V19.25H52.5684V13.8545ZM64.3915 13.475L62.3937 19.25H61.9384L60.1092 14.069L58.2715 19.25H57.8163L55.81 13.475H56.2652L58.0608 18.6725L59.9069 13.475H60.3199L62.1576 18.6807L63.97 13.475H64.3915ZM68.414 19.2912C67.8351 19.2912 67.3125 19.1647 66.846 18.9117C66.3796 18.6532 66.0115 18.3012 65.7417 17.8557C65.4776 17.4102 65.3455 16.9125 65.3455 16.3625C65.3455 15.8125 65.4776 15.3147 65.7417 14.8692C66.0115 14.4237 66.3796 14.0745 66.846 13.8215C67.3125 13.563 67.8351 13.4337 68.414 13.4337C68.9928 13.4337 69.5155 13.5602 69.9819 13.8132C70.4481 14.0662 70.8134 14.4155 71.0775 14.861C71.3472 15.3065 71.4821 15.807 71.4821 16.3625C71.4821 16.918 71.3472 17.4185 71.0775 17.864C70.8134 18.3095 70.4481 18.6587 69.9819 18.9117C69.5155 19.1647 68.9928 19.2912 68.414 19.2912ZM68.414 18.9035C68.9085 18.9035 69.3553 18.7935 69.7543 18.5735C70.1533 18.3535 70.4677 18.051 70.6982 17.666C70.9286 17.2755 71.0438 16.841 71.0438 16.3625C71.0438 15.884 70.9286 15.4522 70.6982 15.0672C70.4677 14.6767 70.1533 14.3715 69.7543 14.1515C69.3553 13.9315 68.9085 13.8215 68.414 13.8215C67.9194 13.8215 67.4698 13.9315 67.0652 14.1515C66.6662 14.3715 66.3515 14.6767 66.1211 15.0672C65.8907 15.4522 65.7755 15.884 65.7755 16.3625C65.7755 16.841 65.8907 17.2755 66.1211 17.666C66.3515 18.051 66.6662 18.3535 67.0652 18.5735C67.4698 18.7935 67.9194 18.9035 68.414 18.9035ZM77.4075 19.25L75.9998 17.3195C75.7918 17.347 75.6008 17.3607 75.4265 17.3607H73.7406V19.25H73.3107V13.475H75.4265C76.1684 13.475 76.75 13.6482 77.1715 13.9947C77.593 14.3357 77.8037 14.8115 77.8037 15.422C77.8037 15.8785 77.6829 16.2635 77.4413 16.577C77.2052 16.885 76.8652 17.1022 76.4213 17.2287L77.8965 19.25H77.4075ZM75.4265 16.9895C76.056 16.9895 76.5365 16.8547 76.868 16.5852C77.1996 16.3102 77.3654 15.9225 77.3654 15.422C77.3654 14.9215 77.1996 14.5365 76.868 14.267C76.5365 13.992 76.056 13.8545 75.4265 13.8545H73.7406V16.9895H75.4265ZM81.4686 16.4037L80.1451 17.732V19.25H79.7152V13.475H80.1451V17.1875L83.8289 13.475H84.3515L81.7552 16.0985L84.5286 19.25H84.0059L81.4686 16.4037Z" fill="#5551FF"/>
<path d="M0.414304 14.2502C0.643118 14.2502 0.82861 14.0687 0.82861 13.8447C0.82861 13.6208 0.643118 13.4393 0.414304 13.4393C0.18549 13.4393 0 13.6208 0 13.8447C0 14.0687 0.18549 14.2502 0.414304 14.2502Z" fill="#313144"/>
<path d="M6.17407 13.7598C6.40289 13.7598 6.58838 13.5783 6.58838 13.3543C6.58838 13.1304 6.40289 12.9489 6.17407 12.9489C5.94526 12.9489 5.75977 13.1304 5.75977 13.3543C5.75977 13.5783 5.94526 13.7598 6.17407 13.7598Z" fill="#313144"/>
<path d="M7.83815 16.0814C8.06695 16.0814 8.25247 15.8999 8.25247 15.6759C8.25247 15.452 8.06695 15.2705 7.83815 15.2705C7.60935 15.2705 7.42383 15.452 7.42383 15.6759C7.42383 15.8999 7.60935 16.0814 7.83815 16.0814Z" fill="#313144"/>
<path d="M12.7503 14.3811C12.9791 14.3811 13.1646 14.1996 13.1646 13.9757C13.1646 13.7518 12.9791 13.5702 12.7503 13.5702C12.5215 13.5702 12.3359 13.7518 12.3359 13.9757C12.3359 14.1996 12.5215 14.3811 12.7503 14.3811Z" fill="#313144"/>
<path d="M0.748288 1.88357C0.9771 1.88357 1.16259 1.70204 1.16259 1.4781C1.16259 1.25417 0.9771 1.07263 0.748288 1.07263C0.519475 1.07263 0.333984 1.25417 0.333984 1.4781C0.333984 1.70204 0.519475 1.88357 0.748288 1.88357Z" fill="#313144"/>
<path d="M1.18349 7.01068C1.53779 7.01068 1.825 6.72956 1.825 6.38283C1.825 6.03609 1.53779 5.755 1.18349 5.755C0.829205 5.755 0.541992 6.03609 0.541992 6.38283C0.541992 6.72956 0.829205 7.01068 1.18349 7.01068Z" fill="#313144"/>
<path d="M11.6069 12.8966C11.902 12.8966 12.1414 12.6624 12.1414 12.3734C12.1414 12.0845 11.902 11.8502 11.6069 11.8502C11.3116 11.8502 11.0723 12.0845 11.0723 12.3734C11.0723 12.6624 11.3116 12.8966 11.6069 12.8966Z" fill="#313144"/>
<path d="M0.82853 19.2729C1.12378 19.2729 1.36312 19.0386 1.36312 18.7497C1.36312 18.4608 1.12378 18.2266 0.82853 18.2266C0.533288 18.2266 0.293945 18.4608 0.293945 18.7497C0.293945 19.0386 0.533288 19.2729 0.82853 19.2729Z" fill="#313144"/>
<path d="M4.95133 16.4934C5.2761 16.4934 5.53937 16.2357 5.53937 15.9179C5.53937 15.6001 5.2761 15.3424 4.95133 15.3424C4.62656 15.3424 4.36328 15.6001 4.36328 15.9179C4.36328 16.2357 4.62656 16.4934 4.95133 16.4934Z" fill="#313144"/>
<path d="M9.4961 18.4554C9.7544 18.4554 9.96381 18.2504 9.96381 17.9976C9.96381 17.7447 9.7544 17.5398 9.4961 17.5398C9.23773 17.5398 9.02832 17.7447 9.02832 17.9976C9.02832 18.2504 9.23773 18.4554 9.4961 18.4554Z" fill="#313144"/>
<path d="M2.50633 21.7712C2.89384 21.7712 3.20797 21.4638 3.20797 21.0845C3.20797 20.7053 2.89384 20.3978 2.50633 20.3978C2.11882 20.3978 1.80469 20.7053 1.80469 21.0845C1.80469 21.4638 2.11882 21.7712 2.50633 21.7712Z" fill="#313144"/>
<path d="M5.29851 4.77405C5.89269 4.77405 6.37436 4.30263 6.37436 3.72113C6.37436 3.13962 5.89269 2.66821 5.29851 2.66821C4.70433 2.66821 4.22266 3.13962 4.22266 3.72113C4.22266 4.30263 4.70433 4.77405 5.29851 4.77405Z" fill="#313144"/>
<path d="M3.62824 2.30203C4.27778 2.30203 4.80433 1.7867 4.80433 1.15101C4.80433 0.515325 4.27778 0 3.62824 0C2.97871 0 2.45215 0.515325 2.45215 1.15101C2.45215 1.7867 2.97871 2.30203 3.62824 2.30203Z" fill="#313144"/>
<path d="M4.06274 7.36391C4.62002 7.36391 5.07177 6.92185 5.07177 6.37643C5.07177 5.83104 4.62002 5.38892 4.06274 5.38892C3.50547 5.38892 3.05371 5.83104 3.05371 6.37643C3.05371 6.92185 3.50547 7.36391 4.06274 7.36391Z" fill="#313144"/>
<path d="M6.96288 6.92563C7.54969 6.92563 8.0254 6.46006 8.0254 5.88578C8.0254 5.31149 7.54969 4.84595 6.96288 4.84595C6.37608 4.84595 5.90039 5.31149 5.90039 5.88578C5.90039 6.46006 6.37608 6.92563 6.96288 6.92563Z" fill="#313144"/>
<path d="M2.85361 9.6855C3.41457 9.6855 3.86932 9.24048 3.86932 8.69144C3.86932 8.14248 3.41457 7.69739 2.85361 7.69739C2.29265 7.69739 1.83789 8.14248 1.83789 8.69144C1.83789 9.24048 2.29265 9.6855 2.85361 9.6855Z" fill="#313144"/>
<path d="M5.73359 9.40423C6.26871 9.40423 6.70252 8.9797 6.70252 8.45596C6.70252 7.93222 6.26871 7.50769 5.73359 7.50769C5.19846 7.50769 4.76465 7.93222 4.76465 8.45596C4.76465 8.9797 5.19846 9.40423 5.73359 9.40423Z" fill="#313144"/>
<path d="M8.63398 9.03155C9.09895 9.03155 9.47591 8.66264 9.47591 8.20758C9.47591 7.75246 9.09895 7.38354 8.63398 7.38354C8.16894 7.38354 7.79199 7.75246 7.79199 8.20758C7.79199 8.66264 8.16894 9.03155 8.63398 9.03155Z" fill="#313144"/>
<path d="M7.41129 11.6082C7.87633 11.6082 8.25328 11.2393 8.25328 10.7842C8.25328 10.3291 7.87633 9.96021 7.41129 9.96021C6.9463 9.96021 6.56934 10.3291 6.56934 10.7842C6.56934 11.2393 6.9463 11.6082 7.41129 11.6082Z" fill="#313144"/>
<path d="M4.50409 11.8567C4.96909 11.8567 5.34606 11.4878 5.34606 11.0327C5.34606 10.5776 4.96909 10.2086 4.50409 10.2086C4.03907 10.2086 3.66211 10.5776 3.66211 11.0327C3.66211 11.4878 4.03907 11.8567 4.50409 11.8567Z" fill="#313144"/>
<path d="M3.28745 14.5315C3.81889 14.5315 4.24971 14.1099 4.24971 13.5898C4.24971 13.0697 3.81889 12.6481 3.28745 12.6481C2.75601 12.6481 2.3252 13.0697 2.3252 13.5898C2.3252 14.1099 2.75601 14.5315 3.28745 14.5315Z" fill="#313144"/>
<path d="M2.05846 16.997C2.53085 16.997 2.9138 16.6222 2.9138 16.1599C2.9138 15.6976 2.53085 15.3228 2.05846 15.3228C1.58607 15.3228 1.20312 15.6976 1.20312 16.1599C1.20312 16.6222 1.58607 16.997 2.05846 16.997Z" fill="#313144"/>
<path d="M10.7251 16.3497C11.2529 16.3497 11.6807 15.931 11.6807 15.4145C11.6807 14.8979 11.2529 14.4792 10.7251 14.4792C10.1973 14.4792 9.76953 14.8979 9.76953 15.4145C9.76953 15.931 10.1973 16.3497 10.7251 16.3497Z" fill="#313144"/>
<path d="M9.05503 14.0475C9.58645 14.0475 10.0173 13.626 10.0173 13.1058C10.0173 12.5857 9.58645 12.1641 9.05503 12.1641C8.5236 12.1641 8.09277 12.5857 8.09277 13.1058C8.09277 13.626 8.5236 14.0475 9.05503 14.0475Z" fill="#313144"/>
<path d="M3.71518 19.4429C4.24662 19.4429 4.67743 19.0213 4.67743 18.5012C4.67743 17.9811 4.24662 17.5594 3.71518 17.5594C3.18375 17.5594 2.75293 17.9811 2.75293 18.5012C2.75293 19.0213 3.18375 19.4429 3.71518 19.4429Z" fill="#313144"/>
<path d="M1.60368 11.9745C1.99857 11.9745 2.31869 11.6612 2.31869 11.2747C2.31869 10.8882 1.99857 10.575 1.60368 10.575C1.20879 10.575 0.888672 10.8882 0.888672 11.2747C0.888672 11.6612 1.20879 11.9745 1.60368 11.9745Z" fill="#313144"/>
<path d="M10.2971 11.2289C10.6919 11.2289 11.0121 10.9156 11.0121 10.5292C11.0121 10.1426 10.6919 9.82935 10.2971 9.82935C9.90215 9.82935 9.58203 10.1426 9.58203 10.5292C9.58203 10.9156 9.90215 11.2289 10.2971 11.2289Z" fill="#313144"/>
<path d="M2.4121 4.83943C2.99889 4.83943 3.47459 4.37389 3.47459 3.7996C3.47459 3.22531 2.99889 2.75977 2.4121 2.75977C1.8253 2.75977 1.34961 3.22531 1.34961 3.7996C1.34961 4.37389 1.8253 4.83943 2.4121 4.83943Z" fill="#313144"/>
<path d="M27.6848 14.2502C27.9136 14.2502 28.0991 14.0687 28.0991 13.8447C28.0991 13.6208 27.9136 13.4393 27.6848 13.4393C27.456 13.4393 27.2705 13.6208 27.2705 13.8447C27.2705 14.0687 27.456 14.2502 27.6848 14.2502Z" fill="#313144"/>
<path d="M21.924 13.7598C22.1529 13.7598 22.3383 13.5783 22.3383 13.3543C22.3383 13.1304 22.1529 12.9489 21.924 12.9489C21.6952 12.9489 21.5098 13.1304 21.5098 13.3543C21.5098 13.5783 21.6952 13.7598 21.924 13.7598Z" fill="#313144"/>
<path d="M20.261 16.0814C20.4898 16.0814 20.6753 15.8999 20.6753 15.6759C20.6753 15.452 20.4898 15.2705 20.261 15.2705C20.0321 15.2705 19.8467 15.452 19.8467 15.6759C19.8467 15.8999 20.0321 16.0814 20.261 16.0814Z" fill="#313144"/>
<path d="M15.3489 14.3811C15.5777 14.3811 15.7631 14.1996 15.7631 13.9757C15.7631 13.7518 15.5777 13.5702 15.3489 13.5702C15.12 13.5702 14.9346 13.7518 14.9346 13.9757C14.9346 14.1996 15.12 14.3811 15.3489 14.3811Z" fill="#313144"/>
<path d="M27.3508 1.88357C27.5796 1.88357 27.7651 1.70204 27.7651 1.4781C27.7651 1.25417 27.5796 1.07263 27.3508 1.07263C27.122 1.07263 26.9365 1.25417 26.9365 1.4781C26.9365 1.70204 27.122 1.88357 27.3508 1.88357Z" fill="#313144"/>
<path d="M26.9158 7.01068C27.2702 7.01068 27.5574 6.72956 27.5574 6.38283C27.5574 6.03609 27.2702 5.755 26.9158 5.755C26.5616 5.755 26.2744 6.03609 26.2744 6.38283C26.2744 6.72956 26.5616 7.01068 26.9158 7.01068Z" fill="#313144"/>
<path d="M16.4916 12.8966C16.7869 12.8966 17.0262 12.6624 17.0262 12.3734C17.0262 12.0845 16.7869 11.8502 16.4916 11.8502C16.1964 11.8502 15.957 12.0845 15.957 12.3734C15.957 12.6624 16.1964 12.8966 16.4916 12.8966Z" fill="#313144"/>
<path d="M27.2709 19.2729C27.5662 19.2729 27.8055 19.0386 27.8055 18.7497C27.8055 18.4608 27.5662 18.2266 27.2709 18.2266C26.9757 18.2266 26.7363 18.4608 26.7363 18.7497C26.7363 19.0386 26.9757 19.2729 27.2709 19.2729Z" fill="#313144"/>
<path d="M23.1476 16.4934C23.4724 16.4934 23.7357 16.2357 23.7357 15.9179C23.7357 15.6001 23.4724 15.3424 23.1476 15.3424C22.8229 15.3424 22.5596 15.6001 22.5596 15.9179C22.5596 16.2357 22.8229 16.4934 23.1476 16.4934Z" fill="#313144"/>
<path d="M18.6035 18.4554C18.8619 18.4554 19.0713 18.2504 19.0713 17.9976C19.0713 17.7447 18.8619 17.5398 18.6035 17.5398C18.3452 17.5398 18.1357 17.7447 18.1357 17.9976C18.1357 18.2504 18.3452 18.4554 18.6035 18.4554Z" fill="#313144"/>
<path d="M25.5932 21.7712C25.9807 21.7712 26.2949 21.4638 26.2949 21.0845C26.2949 20.7053 25.9807 20.3978 25.5932 20.3978C25.2057 20.3978 24.8916 20.7053 24.8916 21.0845C24.8916 21.4638 25.2057 21.7712 25.5932 21.7712Z" fill="#313144"/>
<path d="M22.8005 4.77405C23.3947 4.77405 23.8763 4.30263 23.8763 3.72113C23.8763 3.13962 23.3947 2.66821 22.8005 2.66821C22.2063 2.66821 21.7246 3.13962 21.7246 3.72113C21.7246 4.30263 22.2063 4.77405 22.8005 4.77405Z" fill="#313144"/>
<path d="M24.471 2.30203C25.1205 2.30203 25.6471 1.7867 25.6471 1.15101C25.6471 0.515325 25.1205 0 24.471 0C23.8215 0 23.2949 0.515325 23.2949 1.15101C23.2949 1.7867 23.8215 2.30203 24.471 2.30203Z" fill="#313144"/>
<path d="M24.0364 7.36391C24.5936 7.36391 25.0454 6.92185 25.0454 6.37643C25.0454 5.83104 24.5936 5.38892 24.0364 5.38892C23.4791 5.38892 23.0273 5.83104 23.0273 6.37643C23.0273 6.92185 23.4791 7.36391 24.0364 7.36391Z" fill="#313144"/>
<path d="M21.1357 6.92563C21.7225 6.92563 22.1982 6.46006 22.1982 5.88578C22.1982 5.31149 21.7225 4.84595 21.1357 4.84595C20.549 4.84595 20.0732 5.31149 20.0732 5.88578C20.0732 6.46006 20.549 6.92563 21.1357 6.92563Z" fill="#313144"/>
<path d="M25.2462 9.6855C25.8071 9.6855 26.2619 9.24048 26.2619 8.69144C26.2619 8.14248 25.8071 7.69739 25.2462 7.69739C24.6852 7.69739 24.2305 8.14248 24.2305 8.69144C24.2305 9.24048 24.6852 9.6855 25.2462 9.6855Z" fill="#313144"/>
<path d="M22.3654 9.40423C22.9006 9.40423 23.3344 8.9797 23.3344 8.45596C23.3344 7.93222 22.9006 7.50769 22.3654 7.50769C21.8303 7.50769 21.3965 7.93222 21.3965 8.45596C21.3965 8.9797 21.8303 9.40423 22.3654 9.40423Z" fill="#313144"/>
<path d="M19.465 9.03155C19.93 9.03155 20.307 8.66264 20.307 8.20758C20.307 7.75246 19.93 7.38354 19.465 7.38354C19 7.38354 18.623 7.75246 18.623 8.20758C18.623 8.66264 19 9.03155 19.465 9.03155Z" fill="#313144"/>
<path d="M20.6886 11.6082C21.1536 11.6082 21.5306 11.2393 21.5306 10.7842C21.5306 10.3291 21.1536 9.96021 20.6886 9.96021C20.2236 9.96021 19.8467 10.3291 19.8467 10.7842C19.8467 11.2393 20.2236 11.6082 20.6886 11.6082Z" fill="#313144"/>
<path d="M23.5949 11.8567C24.0599 11.8567 24.4369 11.4878 24.4369 11.0327C24.4369 10.5776 24.0599 10.2086 23.5949 10.2086C23.1299 10.2086 22.7529 10.5776 22.7529 11.0327C22.7529 11.4878 23.1299 11.8567 23.5949 11.8567Z" fill="#313144"/>
<path d="M24.8109 14.5315C25.3423 14.5315 25.7731 14.1099 25.7731 13.5898C25.7731 13.0697 25.3423 12.6481 24.8109 12.6481C24.2795 12.6481 23.8486 13.0697 23.8486 13.5898C23.8486 14.1099 24.2795 14.5315 24.8109 14.5315Z" fill="#313144"/>
<path d="M26.0409 16.997C26.5132 16.997 26.8962 16.6222 26.8962 16.1599C26.8962 15.6976 26.5132 15.3228 26.0409 15.3228C25.5685 15.3228 25.1855 15.6976 25.1855 16.1599C25.1855 16.6222 25.5685 16.997 26.0409 16.997Z" fill="#313144"/>
<path d="M17.3736 16.3497C17.9013 16.3497 18.3291 15.931 18.3291 15.4145C18.3291 14.8979 17.9013 14.4792 17.3736 14.4792C16.8458 14.4792 16.418 14.8979 16.418 15.4145C16.418 15.931 16.8458 16.3497 17.3736 16.3497Z" fill="#313144"/>
<path d="M19.0453 14.0475C19.5767 14.0475 20.0075 13.626 20.0075 13.1058C20.0075 12.5857 19.5767 12.1641 19.0453 12.1641C18.5138 12.1641 18.083 12.5857 18.083 13.1058C18.083 13.626 18.5138 14.0475 19.0453 14.0475Z" fill="#313144"/>
<path d="M24.3841 19.4429C24.9156 19.4429 25.3464 19.0213 25.3464 18.5012C25.3464 17.9811 24.9156 17.5594 24.3841 17.5594C23.8527 17.5594 23.4219 17.9811 23.4219 18.5012C23.4219 19.0213 23.8527 19.4429 24.3841 19.4429Z" fill="#313144"/>
<path d="M26.4953 11.9745C26.8902 11.9745 27.2103 11.6612 27.2103 11.2747C27.2103 10.8882 26.8902 10.575 26.4953 10.575C26.1004 10.575 25.7803 10.8882 25.7803 11.2747C25.7803 11.6612 26.1004 11.9745 26.4953 11.9745Z" fill="#313144"/>
<path d="M17.8019 11.2289C18.1968 11.2289 18.5169 10.9156 18.5169 10.5292C18.5169 10.1426 18.1968 9.82935 17.8019 9.82935C17.407 9.82935 17.0869 10.1426 17.0869 10.5292C17.0869 10.9156 17.407 11.2289 17.8019 11.2289Z" fill="#313144"/>
<path d="M25.6865 4.83943C26.2733 4.83943 26.749 4.37389 26.749 3.7996C26.749 3.22531 26.2733 2.75977 25.6865 2.75977C25.0997 2.75977 24.624 3.22531 24.624 3.7996C24.624 4.37389 25.0997 4.83943 25.6865 4.83943Z" fill="#313144"/>
<path d="M12.3889 18.5731C12.8539 18.5731 13.2309 18.2041 13.2309 17.7491C13.2309 17.294 12.8539 16.925 12.3889 16.925C11.9239 16.925 11.5469 17.294 11.5469 17.7491C11.5469 18.2041 11.9239 18.5731 12.3889 18.5731Z" fill="#313144"/>
<path d="M15.7102 18.5731C16.1751 18.5731 16.5521 18.2041 16.5521 17.7491C16.5521 17.294 16.1751 16.925 15.7102 16.925C15.2451 16.925 14.8682 17.294 14.8682 17.7491C14.8682 18.2041 15.2451 18.5731 15.7102 18.5731Z" fill="#313144"/>
<path d="M14.053 16.4672C14.4442 16.4672 14.7614 16.1569 14.7614 15.774C14.7614 15.3911 14.4442 15.0808 14.053 15.0808C13.6619 15.0808 13.3447 15.3911 13.3447 15.774C13.3447 16.1569 13.6619 16.4672 14.053 16.4672Z" fill="#313144"/>
<path d="M11.166 20.7771C11.4244 20.7771 11.6338 20.5722 11.6338 20.3193C11.6338 20.0665 11.4244 19.8616 11.166 19.8616C10.9077 19.8616 10.6982 20.0665 10.6982 20.3193C10.6982 20.5722 10.9077 20.7771 11.166 20.7771Z" fill="#313144"/>
<path d="M16.9326 20.7771C17.1909 20.7771 17.4003 20.5722 17.4003 20.3193C17.4003 20.0665 17.1909 19.8616 16.9326 19.8616C16.6743 19.8616 16.4648 20.0665 16.4648 20.3193C16.4648 20.5722 16.6743 20.7771 16.9326 20.7771Z" fill="#313144"/>
<path d="M14.053 20.8293C14.4442 20.8293 14.7614 20.5189 14.7614 20.1361C14.7614 19.7532 14.4442 19.4429 14.053 19.4429C13.6619 19.4429 13.3447 19.7532 13.3447 20.1361C13.3447 20.5189 13.6619 20.8293 14.053 20.8293Z" fill="#313144"/>
</g>
<defs>
<clipPath id="clip0_38_3203">
<rect width="85" height="22" fill="white"/>
</clipPath>
</defs>
</svg>
