<svg width="121" height="32" viewBox="0 0 121 32" fill="none" xmlns="http://www.w3.org/2000/svg">
<g clip-path="url(#clip0_21_3140)">
<path d="M62.4079 13L62.3959 5.81199L58.8799 11.884H58.5799L55.0639 5.83599V13H54.4639V4.59999H54.9799L58.7359 11.092L62.4919 4.59999H62.9959L63.0079 13H62.4079ZM69.7046 13.06C68.6406 13.06 67.8126 12.752 67.2206 12.136C66.6366 11.52 66.3446 10.62 66.3446 9.43599V4.59999H66.9566V9.41199C66.9566 10.444 67.1926 11.216 67.6646 11.728C68.1366 12.24 68.8206 12.496 69.7166 12.496C70.6046 12.496 71.2846 12.24 71.7566 11.728C72.2286 11.216 72.4646 10.444 72.4646 9.41199V4.59999H73.0766V9.43599C73.0766 10.62 72.7806 11.52 72.1886 12.136C71.5966 12.752 70.7686 13.06 69.7046 13.06ZM79.9762 13.06C79.1522 13.06 78.4082 12.876 77.7442 12.508C77.0802 12.132 76.5562 11.62 76.1722 10.972C75.7962 10.324 75.6082 9.59999 75.6082 8.79999C75.6082 7.99999 75.7962 7.27599 76.1722 6.62799C76.5562 5.97999 77.0802 5.47199 77.7442 5.10399C78.4082 4.72799 79.1522 4.53999 79.9762 4.53999C80.8002 4.53999 81.5442 4.72399 82.2082 5.09199C82.8722 5.45999 83.3922 5.96799 83.7682 6.61599C84.1522 7.26399 84.3442 7.99199 84.3442 8.79999C84.3442 9.60799 84.1522 10.336 83.7682 10.984C83.3922 11.632 82.8722 12.14 82.2082 12.508C81.5442 12.876 80.8002 13.06 79.9762 13.06ZM79.9762 12.496C80.6802 12.496 81.3162 12.336 81.8842 12.016C82.4522 11.696 82.9002 11.256 83.2282 10.696C83.5562 10.128 83.7202 9.49599 83.7202 8.79999C83.7202 8.10399 83.5562 7.47599 83.2282 6.91599C82.9002 6.34799 82.4522 5.90399 81.8842 5.58399C81.3162 5.26399 80.6802 5.10399 79.9762 5.10399C79.2722 5.10399 78.6322 5.26399 78.0562 5.58399C77.4882 5.90399 77.0402 6.34799 76.7122 6.91599C76.3842 7.47599 76.2202 8.10399 76.2202 8.79999C76.2202 9.49599 76.3842 10.128 76.7122 10.696C77.0402 11.256 77.4882 11.696 78.0562 12.016C78.6322 12.336 79.2722 12.496 79.9762 12.496ZM93.7869 4.59999V13H93.2829L87.5589 5.70399V13H86.9469V4.59999H87.4629L93.1749 11.896V4.59999H93.7869ZM61.3039 19.6V28H60.7999L55.0759 20.704V28H54.4639V19.6H54.9799L60.6919 26.896V19.6H61.3039ZM70.5133 27.448V28H64.7173V19.6H70.3333V20.152H65.3293V23.464H69.8053V24.004H65.3293V27.448H70.5133ZM74.8327 20.152H71.8087V19.6H78.4687V20.152H75.4447V28H74.8327V20.152ZM91.6632 19.6L88.8192 28H88.1712L85.5672 20.464L82.9512 28H82.3032L79.4472 19.6H80.0952L82.6512 27.16L85.2792 19.6H85.8672L88.4832 27.172L91.0632 19.6H91.6632ZM97.3893 28.06C96.5653 28.06 95.8213 27.876 95.1573 27.508C94.4933 27.132 93.9693 26.62 93.5853 25.972C93.2093 25.324 93.0213 24.6 93.0213 23.8C93.0213 23 93.2093 22.276 93.5853 21.628C93.9693 20.98 94.4933 20.472 95.1573 20.104C95.8213 19.728 96.5653 19.54 97.3893 19.54C98.2133 19.54 98.9573 19.724 99.6213 20.092C100.285 20.46 100.805 20.968 101.181 21.616C101.565 22.264 101.757 22.992 101.757 23.8C101.757 24.608 101.565 25.336 101.181 25.984C100.805 26.632 100.285 27.14 99.6213 27.508C98.9573 27.876 98.2133 28.06 97.3893 28.06ZM97.3893 27.496C98.0933 27.496 98.7293 27.336 99.2973 27.016C99.8653 26.696 100.313 26.256 100.641 25.696C100.969 25.128 101.133 24.496 101.133 23.8C101.133 23.104 100.969 22.476 100.641 21.916C100.313 21.348 99.8653 20.904 99.2973 20.584C98.7293 20.264 98.0933 20.104 97.3893 20.104C96.6853 20.104 96.0453 20.264 95.4693 20.584C94.9013 20.904 94.4533 21.348 94.1253 21.916C93.7973 22.476 93.6333 23.104 93.6333 23.8C93.6333 24.496 93.7973 25.128 94.1253 25.696C94.4533 26.256 94.9013 26.696 95.4693 27.016C96.0453 27.336 96.6853 27.496 97.3893 27.496ZM110.192 28L108.188 25.192C107.892 25.232 107.62 25.252 107.372 25.252H104.972V28H104.36V19.6H107.372C108.428 19.6 109.256 19.852 109.856 20.356C110.456 20.852 110.756 21.544 110.756 22.432C110.756 23.096 110.584 23.656 110.24 24.112C109.904 24.56 109.42 24.876 108.788 25.06L110.888 28H110.192ZM107.372 24.712C108.268 24.712 108.952 24.516 109.424 24.124C109.896 23.724 110.132 23.16 110.132 22.432C110.132 21.704 109.896 21.144 109.424 20.752C108.952 20.352 108.268 20.152 107.372 20.152H104.972V24.712H107.372ZM115.973 23.86L114.089 25.792V28H113.477V19.6H114.089V25L119.333 19.6H120.077L116.381 23.416L120.329 28H119.585L115.973 23.86Z" fill="#5551FF"/>
<path d="M0.589774 20.7277C0.915497 20.7277 1.17955 20.4637 1.17955 20.1379C1.17955 19.8122 0.915497 19.5482 0.589774 19.5482C0.264051 19.5482 0 19.8122 0 20.1379C0 20.4637 0.264051 20.7277 0.589774 20.7277Z" fill="#313144"/>
<path d="M8.789 20.0143C9.11472 20.0143 9.37877 19.7502 9.37877 19.4245C9.37877 19.0988 9.11472 18.8347 8.789 18.8347C8.46328 18.8347 8.19922 19.0988 8.19922 19.4245C8.19922 19.7502 8.46328 20.0143 8.789 20.0143Z" fill="#313144"/>
<path d="M11.1582 23.3912C11.4839 23.3912 11.748 23.1272 11.748 22.8014C11.748 22.4757 11.4839 22.2117 11.1582 22.2117C10.8325 22.2117 10.5684 22.4757 10.5684 22.8014C10.5684 23.1272 10.8325 23.3912 11.1582 23.3912Z" fill="#313144"/>
<path d="M18.1503 20.9179C18.476 20.9179 18.7401 20.6539 18.7401 20.3282C18.7401 20.0025 18.476 19.7384 18.1503 19.7384C17.8246 19.7384 17.5605 20.0025 17.5605 20.3282C17.5605 20.6539 17.8246 20.9179 18.1503 20.9179Z" fill="#313144"/>
<path d="M1.06536 2.73967C1.39108 2.73967 1.65513 2.47562 1.65513 2.14989C1.65513 1.82417 1.39108 1.56012 1.06536 1.56012C0.739637 1.56012 0.475586 1.82417 0.475586 2.14989C0.475586 2.47562 0.739637 2.73967 1.06536 2.73967Z" fill="#313144"/>
<path d="M1.6837 10.1974C2.18805 10.1974 2.5969 9.78851 2.5969 9.28417C2.5969 8.77982 2.18805 8.37097 1.6837 8.37097C1.17936 8.37097 0.770508 8.77982 0.770508 9.28417C0.770508 9.78851 1.17936 10.1974 1.6837 10.1974Z" fill="#313144"/>
<path d="M16.5227 18.7586C16.9429 18.7586 17.2837 18.4179 17.2837 17.9976C17.2837 17.5773 16.9429 17.2366 16.5227 17.2366C16.1024 17.2366 15.7617 17.5773 15.7617 17.9976C15.7617 18.4179 16.1024 18.7586 16.5227 18.7586Z" fill="#313144"/>
<path d="M1.17897 28.0333C1.59926 28.0333 1.93997 27.6926 1.93997 27.2724C1.93997 26.8521 1.59926 26.5114 1.17897 26.5114C0.75868 26.5114 0.417969 26.8521 0.417969 27.2724C0.417969 27.6926 0.75868 28.0333 1.17897 28.0333Z" fill="#313144"/>
<path d="M7.04901 23.9904C7.51133 23.9904 7.88611 23.6156 7.88611 23.1533C7.88611 22.691 7.51133 22.3162 7.04901 22.3162C6.58669 22.3162 6.21191 22.691 6.21191 23.1533C6.21191 23.6156 6.58669 23.9904 7.04901 23.9904Z" fill="#313144"/>
<path d="M13.5175 26.8443C13.8852 26.8443 14.1833 26.5461 14.1833 26.1784C14.1833 25.8106 13.8852 25.5125 13.5175 25.5125C13.1497 25.5125 12.8516 25.8106 12.8516 26.1784C12.8516 26.5461 13.1497 26.8443 13.5175 26.8443Z" fill="#313144"/>
<path d="M3.56717 31.6671C4.1188 31.6671 4.56598 31.22 4.56598 30.6683C4.56598 30.1167 4.1188 29.6695 3.56717 29.6695C3.01554 29.6695 2.56836 30.1167 2.56836 30.6683C2.56836 31.22 3.01554 31.6671 3.56717 31.6671Z" fill="#313144"/>
<path d="M7.54323 6.94407C8.38906 6.94407 9.07474 6.25838 9.07474 5.41255C9.07474 4.56672 8.38906 3.88104 7.54323 3.88104C6.6974 3.88104 6.01172 4.56672 6.01172 5.41255C6.01172 6.25838 6.6974 6.94407 7.54323 6.94407Z" fill="#313144"/>
<path d="M5.16541 3.3484C6.09005 3.3484 6.83961 2.59883 6.83961 1.6742C6.83961 0.749564 6.09005 0 5.16541 0C4.24078 0 3.49121 0.749564 3.49121 1.6742C3.49121 2.59883 4.24078 3.3484 5.16541 3.3484Z" fill="#313144"/>
<path d="M5.78306 10.7111C6.57636 10.7111 7.21945 10.0681 7.21945 9.27476C7.21945 8.48147 6.57636 7.83838 5.78306 7.83838C4.98977 7.83838 4.34668 8.48147 4.34668 9.27476C4.34668 10.0681 4.98977 10.7111 5.78306 10.7111Z" fill="#313144"/>
<path d="M9.91189 10.0737C10.7472 10.0737 11.4244 9.39651 11.4244 8.56119C11.4244 7.72587 10.7472 7.04871 9.91189 7.04871C9.07657 7.04871 8.39941 7.72587 8.39941 8.56119C8.39941 9.39651 9.07657 10.0737 9.91189 10.0737Z" fill="#313144"/>
<path d="M4.06211 14.088C4.86066 14.088 5.50801 13.4407 5.50801 12.6421C5.50801 11.8436 4.86066 11.1962 4.06211 11.1962C3.26357 11.1962 2.61621 11.8436 2.61621 12.6421C2.61621 13.4407 3.26357 14.088 4.06211 14.088Z" fill="#313144"/>
<path d="M8.16154 13.6789C8.92331 13.6789 9.54085 13.0614 9.54085 12.2996C9.54085 11.5378 8.92331 10.9203 8.16154 10.9203C7.39977 10.9203 6.78223 11.5378 6.78223 12.2996C6.78223 13.0614 7.39977 13.6789 8.16154 13.6789Z" fill="#313144"/>
<path d="M12.2904 13.1368C12.9523 13.1368 13.4889 12.6002 13.4889 11.9383C13.4889 11.2763 12.9523 10.7397 12.2904 10.7397C11.6284 10.7397 11.0918 11.2763 11.0918 11.9383C11.0918 12.6002 11.6284 13.1368 12.2904 13.1368Z" fill="#313144"/>
<path d="M10.5491 16.8846C11.2111 16.8846 11.7477 16.348 11.7477 15.6861C11.7477 15.0241 11.2111 14.4875 10.5491 14.4875C9.88721 14.4875 9.35059 15.0241 9.35059 15.6861C9.35059 16.348 9.88721 16.8846 10.5491 16.8846Z" fill="#313144"/>
<path d="M6.41147 17.2461C7.07342 17.2461 7.61004 16.7095 7.61004 16.0475C7.61004 15.3856 7.07342 14.8489 6.41147 14.8489C5.74951 14.8489 5.21289 15.3856 5.21289 16.0475C5.21289 16.7095 5.74951 17.2461 6.41147 17.2461Z" fill="#313144"/>
<path d="M4.68035 21.1368C5.43687 21.1368 6.05015 20.5235 6.05015 19.767C6.05015 19.0105 5.43687 18.3972 4.68035 18.3972C3.92383 18.3972 3.31055 19.0105 3.31055 19.767C3.31055 20.5235 3.92383 21.1368 4.68035 21.1368Z" fill="#313144"/>
<path d="M2.92951 24.7229C3.60197 24.7229 4.1471 24.1778 4.1471 23.5053C4.1471 22.8329 3.60197 22.2877 2.92951 22.2877C2.25705 22.2877 1.71191 22.8329 1.71191 23.5053C1.71191 24.1778 2.25705 24.7229 2.92951 24.7229Z" fill="#313144"/>
<path d="M15.2675 23.7813C16.0188 23.7813 16.6278 23.1723 16.6278 22.421C16.6278 21.6697 16.0188 21.0607 15.2675 21.0607C14.5162 21.0607 13.9072 21.6697 13.9072 22.421C13.9072 23.1723 14.5162 23.7813 15.2675 23.7813Z" fill="#313144"/>
<path d="M12.8893 20.4328C13.6458 20.4328 14.2591 19.8196 14.2591 19.063C14.2591 18.3065 13.6458 17.6932 12.8893 17.6932C12.1328 17.6932 11.5195 18.3065 11.5195 19.063C11.5195 19.8196 12.1328 20.4328 12.8893 20.4328Z" fill="#313144"/>
<path d="M5.28874 28.2806C6.04526 28.2806 6.65854 27.6673 6.65854 26.9108C6.65854 26.1543 6.04526 25.541 5.28874 25.541C4.53223 25.541 3.91895 26.1543 3.91895 26.9108C3.91895 27.6673 4.53223 28.2806 5.28874 28.2806Z" fill="#313144"/>
<path d="M2.28346 17.4174C2.8456 17.4174 3.3013 16.9617 3.3013 16.3995C3.3013 15.8374 2.8456 15.3817 2.28346 15.3817C1.72133 15.3817 1.26562 15.8374 1.26562 16.3995C1.26562 16.9617 1.72133 17.4174 2.28346 17.4174Z" fill="#313144"/>
<path d="M14.6585 16.3329C15.2206 16.3329 15.6763 15.8772 15.6763 15.3151C15.6763 14.7529 15.2206 14.2972 14.6585 14.2972C14.0963 14.2972 13.6406 14.7529 13.6406 15.3151C13.6406 15.8772 14.0963 16.3329 14.6585 16.3329Z" fill="#313144"/>
<path d="M3.43436 7.03925C4.26968 7.03925 4.94685 6.36209 4.94685 5.52677C4.94685 4.69144 4.26968 4.01428 3.43436 4.01428C2.59904 4.01428 1.92188 4.69144 1.92188 5.52677C1.92188 6.36209 2.59904 7.03925 3.43436 7.03925Z" fill="#313144"/>
<path d="M39.4101 20.7277C39.7358 20.7277 39.9998 20.4637 39.9998 20.1379C39.9998 19.8122 39.7358 19.5482 39.4101 19.5482C39.0843 19.5482 38.8203 19.8122 38.8203 20.1379C38.8203 20.4637 39.0843 20.7277 39.4101 20.7277Z" fill="#313144"/>
<path d="M31.2098 20.0143C31.5356 20.0143 31.7996 19.7502 31.7996 19.4245C31.7996 19.0988 31.5356 18.8347 31.2098 18.8347C30.8841 18.8347 30.6201 19.0988 30.6201 19.4245C30.6201 19.7502 30.8841 20.0143 31.2098 20.0143Z" fill="#313144"/>
<path d="M28.8418 23.3912C29.1675 23.3912 29.4315 23.1272 29.4315 22.8014C29.4315 22.4757 29.1675 22.2117 28.8418 22.2117C28.516 22.2117 28.252 22.4757 28.252 22.8014C28.252 23.1272 28.516 23.3912 28.8418 23.3912Z" fill="#313144"/>
<path d="M21.8505 20.9179C22.1762 20.9179 22.4402 20.6539 22.4402 20.3282C22.4402 20.0025 22.1762 19.7384 21.8505 19.7384C21.5247 19.7384 21.2607 20.0025 21.2607 20.3282C21.2607 20.6539 21.5247 20.9179 21.8505 20.9179Z" fill="#313144"/>
<path d="M38.9345 2.73967C39.2602 2.73967 39.5242 2.47562 39.5242 2.14989C39.5242 1.82417 39.2602 1.56012 38.9345 1.56012C38.6087 1.56012 38.3447 1.82417 38.3447 2.14989C38.3447 2.47562 38.6087 2.73967 38.9345 2.73967Z" fill="#313144"/>
<path d="M38.3164 10.1974C38.8208 10.1974 39.2296 9.78851 39.2296 9.28417C39.2296 8.77982 38.8208 8.37097 38.3164 8.37097C37.8121 8.37097 37.4033 8.77982 37.4033 9.28417C37.4033 9.78851 37.8121 10.1974 38.3164 10.1974Z" fill="#313144"/>
<path d="M23.4768 18.7586C23.8971 18.7586 24.2378 18.4179 24.2378 17.9976C24.2378 17.5773 23.8971 17.2366 23.4768 17.2366C23.0566 17.2366 22.7158 17.5773 22.7158 17.9976C22.7158 18.4179 23.0566 18.7586 23.4768 18.7586Z" fill="#313144"/>
<path d="M38.8206 28.0333C39.2409 28.0333 39.5816 27.6926 39.5816 27.2724C39.5816 26.8521 39.2409 26.5114 38.8206 26.5114C38.4003 26.5114 38.0596 26.8521 38.0596 27.2724C38.0596 27.6926 38.4003 28.0333 38.8206 28.0333Z" fill="#313144"/>
<path d="M32.9514 23.9904C33.4137 23.9904 33.7885 23.6156 33.7885 23.1533C33.7885 22.691 33.4137 22.3162 32.9514 22.3162C32.4891 22.3162 32.1143 22.691 32.1143 23.1533C32.1143 23.6156 32.4891 23.9904 32.9514 23.9904Z" fill="#313144"/>
<path d="M26.4823 26.8443C26.8501 26.8443 27.1482 26.5461 27.1482 26.1784C27.1482 25.8106 26.8501 25.5125 26.4823 25.5125C26.1145 25.5125 25.8164 25.8106 25.8164 26.1784C25.8164 26.5461 26.1145 26.8443 26.4823 26.8443Z" fill="#313144"/>
<path d="M36.4324 31.6671C36.984 31.6671 37.4312 31.22 37.4312 30.6683C37.4312 30.1167 36.984 29.6695 36.4324 29.6695C35.8807 29.6695 35.4336 30.1167 35.4336 30.6683C35.4336 31.22 35.8807 31.6671 36.4324 31.6671Z" fill="#313144"/>
<path d="M32.4573 6.94407C33.3032 6.94407 33.9888 6.25838 33.9888 5.41255C33.9888 4.56672 33.3032 3.88104 32.4573 3.88104C31.6115 3.88104 30.9258 4.56672 30.9258 5.41255C30.9258 6.25838 31.6115 6.94407 32.4573 6.94407Z" fill="#313144"/>
<path d="M34.8353 3.3484C35.7599 3.3484 36.5095 2.59883 36.5095 1.6742C36.5095 0.749564 35.7599 0 34.8353 0C33.9107 0 33.1611 0.749564 33.1611 1.6742C33.1611 2.59883 33.9107 3.3484 34.8353 3.3484Z" fill="#313144"/>
<path d="M34.2167 10.7111C35.0099 10.7111 35.653 10.0681 35.653 9.27476C35.653 8.48147 35.0099 7.83838 34.2167 7.83838C33.4234 7.83838 32.7803 8.48147 32.7803 9.27476C32.7803 10.0681 33.4234 10.7111 34.2167 10.7111Z" fill="#313144"/>
<path d="M30.0877 10.0737C30.923 10.0737 31.6002 9.39651 31.6002 8.56119C31.6002 7.72587 30.923 7.04871 30.0877 7.04871C29.2524 7.04871 28.5752 7.72587 28.5752 8.56119C28.5752 9.39651 29.2524 10.0737 30.0877 10.0737Z" fill="#313144"/>
<path d="M35.9391 14.088C36.7376 14.088 37.385 13.4407 37.385 12.6421C37.385 11.8436 36.7376 11.1962 35.9391 11.1962C35.1405 11.1962 34.4932 11.8436 34.4932 12.6421C34.4932 13.4407 35.1405 14.088 35.9391 14.088Z" fill="#313144"/>
<path d="M31.8383 13.6789C32.6001 13.6789 33.2177 13.0614 33.2177 12.2996C33.2177 11.5378 32.6001 10.9203 31.8383 10.9203C31.0766 10.9203 30.459 11.5378 30.459 12.2996C30.459 13.0614 31.0766 13.6789 31.8383 13.6789Z" fill="#313144"/>
<path d="M27.7093 13.1368C28.3712 13.1368 28.9079 12.6002 28.9079 11.9383C28.9079 11.2763 28.3712 10.7397 27.7093 10.7397C27.0473 10.7397 26.5107 11.2763 26.5107 11.9383C26.5107 12.6002 27.0473 13.1368 27.7093 13.1368Z" fill="#313144"/>
<path d="M29.4505 16.8846C30.1125 16.8846 30.6491 16.348 30.6491 15.6861C30.6491 15.0241 30.1125 14.4875 29.4505 14.4875C28.7886 14.4875 28.252 15.0241 28.252 15.6861C28.252 16.348 28.7886 16.8846 29.4505 16.8846Z" fill="#313144"/>
<path d="M33.5882 17.2461C34.2501 17.2461 34.7868 16.7095 34.7868 16.0475C34.7868 15.3856 34.2501 14.8489 33.5882 14.8489C32.9262 14.8489 32.3896 15.3856 32.3896 16.0475C32.3896 16.7095 32.9262 17.2461 33.5882 17.2461Z" fill="#313144"/>
<path d="M35.319 21.1368C36.0755 21.1368 36.6888 20.5235 36.6888 19.767C36.6888 19.0105 36.0755 18.3972 35.319 18.3972C34.5625 18.3972 33.9492 19.0105 33.9492 19.767C33.9492 20.5235 34.5625 21.1368 35.319 21.1368Z" fill="#313144"/>
<path d="M37.0701 24.7229C37.7425 24.7229 38.2877 24.1778 38.2877 23.5053C38.2877 22.8329 37.7425 22.2877 37.0701 22.2877C36.3976 22.2877 35.8525 22.8329 35.8525 23.5053C35.8525 24.1778 36.3976 24.7229 37.0701 24.7229Z" fill="#313144"/>
<path d="M24.7324 23.7813C25.4837 23.7813 26.0927 23.1723 26.0927 22.421C26.0927 21.6697 25.4837 21.0607 24.7324 21.0607C23.9812 21.0607 23.3721 21.6697 23.3721 22.421C23.3721 23.1723 23.9812 23.7813 24.7324 23.7813Z" fill="#313144"/>
<path d="M27.111 20.4328C27.8675 20.4328 28.4808 19.8196 28.4808 19.063C28.4808 18.3065 27.8675 17.6932 27.111 17.6932C26.3545 17.6932 25.7412 18.3065 25.7412 19.063C25.7412 19.8196 26.3545 20.4328 27.111 20.4328Z" fill="#313144"/>
<path d="M34.7106 28.2806C35.4671 28.2806 36.0804 27.6673 36.0804 26.9108C36.0804 26.1543 35.4671 25.541 34.7106 25.541C33.9541 25.541 33.3408 26.1543 33.3408 26.9108C33.3408 27.6673 33.9541 28.2806 34.7106 28.2806Z" fill="#313144"/>
<path d="M37.7171 17.4174C38.2792 17.4174 38.7349 16.9617 38.7349 16.3995C38.7349 15.8374 38.2792 15.3817 37.7171 15.3817C37.1549 15.3817 36.6992 15.8374 36.6992 16.3995C36.6992 16.9617 37.1549 17.4174 37.7171 17.4174Z" fill="#313144"/>
<path d="M25.341 16.3329C25.9031 16.3329 26.3588 15.8772 26.3588 15.3151C26.3588 14.7529 25.9031 14.2972 25.341 14.2972C24.7789 14.2972 24.3232 14.7529 24.3232 15.3151C24.3232 15.8772 24.7789 16.3329 25.341 16.3329Z" fill="#313144"/>
<path d="M36.5662 7.03925C37.4015 7.03925 38.0786 6.36209 38.0786 5.52677C38.0786 4.69144 37.4015 4.01428 36.5662 4.01428C35.7308 4.01428 35.0537 4.69144 35.0537 5.52677C35.0537 6.36209 35.7308 7.03925 36.5662 7.03925Z" fill="#313144"/>
<path d="M17.6361 27.0154C18.2981 27.0154 18.8347 26.4788 18.8347 25.8169C18.8347 25.1549 18.2981 24.6183 17.6361 24.6183C16.9742 24.6183 16.4375 25.1549 16.4375 25.8169C16.4375 26.4788 16.9742 27.0154 17.6361 27.0154Z" fill="#313144"/>
<path d="M22.3636 27.0154C23.0255 27.0154 23.5621 26.4788 23.5621 25.8169C23.5621 25.1549 23.0255 24.6183 22.3636 24.6183C21.7016 24.6183 21.165 25.1549 21.165 25.8169C21.165 26.4788 21.7016 27.0154 22.3636 27.0154Z" fill="#313144"/>
<path d="M20.0044 23.9523C20.5613 23.9523 21.0128 23.5009 21.0128 22.944C21.0128 22.3871 20.5613 21.9357 20.0044 21.9357C19.4476 21.9357 18.9961 22.3871 18.9961 22.944C18.9961 23.5009 19.4476 23.9523 20.0044 23.9523Z" fill="#313144"/>
<path d="M15.8954 30.2212C16.2632 30.2212 16.5613 29.9231 16.5613 29.5553C16.5613 29.1876 16.2632 28.8895 15.8954 28.8895C15.5277 28.8895 15.2295 29.1876 15.2295 29.5553C15.2295 29.9231 15.5277 30.2212 15.8954 30.2212Z" fill="#313144"/>
<path d="M24.1043 30.2212C24.4721 30.2212 24.7702 29.9231 24.7702 29.5553C24.7702 29.1876 24.4721 28.8895 24.1043 28.8895C23.7366 28.8895 23.4385 29.1876 23.4385 29.5553C23.4385 29.9231 23.7366 30.2212 24.1043 30.2212Z" fill="#313144"/>
<path d="M20.0044 30.2972C20.5613 30.2972 21.0128 29.8458 21.0128 29.2889C21.0128 28.732 20.5613 28.2806 20.0044 28.2806C19.4476 28.2806 18.9961 28.732 18.9961 29.2889C18.9961 29.8458 19.4476 30.2972 20.0044 30.2972Z" fill="#313144"/>
</g>
<defs>
<clipPath id="clip0_21_3140">
<rect width="121" height="32" fill="white"/>
</clipPath>
</defs>
</svg>
